<svg width="135" height="135" viewBox="0 0 135 135" fill="none" xmlns="http://www.w3.org/2000/svg">
<g id="Group 1707481140">
<circle id="Ellipse 3432" cx="67" cy="67.7002" r="60" fill="white" fill-opacity="0.04"/>
<g id="Ellipse 3438" filter="url(#filter0_f_7838_10315)">
<circle cx="67.3992" cy="67.7" r="19.2" fill="white" fill-opacity="0.8"/>
</g>
<path id="Vector 2212" d="M29 78.5004L60.3521 60.8648C64.7292 58.4027 70.0729 58.3988 74.4536 60.8547L107 79.1004" stroke="white" stroke-width="0.6" stroke-dasharray="1.2 1.2"/>
<path id="Vector 2211" d="M103.997 88.0998L75.9071 104.763C71.3971 107.439 65.7894 107.451 61.2677 104.795L31.9969 87.6046L30.7969 86.8998M30.7969 86.8998V90.4998M30.7969 86.8998L36.7969 86.2998" stroke="white" stroke-width="0.6" stroke-dasharray="1.2 1.2"/>
<path id="Vector 2213" d="M101 79.1H107L105.2 75.5" stroke="white" stroke-width="0.6" stroke-dasharray="1.2 1.2"/>
<g id="Ellipse 3437" filter="url(#filter1_f_7838_10315)">
<circle cx="66.5" cy="67.7002" r="25.5" fill="white" fill-opacity="0.6"/>
</g>
<g id="extrude-group">
<path id="base-face" opacity="0.9" d="M64.097 30.4996C66.3928 29.1741 70.115 29.1741 72.4108 30.4996L93.1954 42.4996C95.4912 43.8251 95.4912 45.9741 93.1954 47.2996L72.4108 59.2996C70.115 60.6251 66.3928 60.6251 64.097 59.2996L43.3124 47.2996C41.0166 45.9741 41.0166 43.8251 43.3124 42.4996L64.097 30.4996Z" fill="white" stroke="black" stroke-width="0.6"/>
<rect id="base-face_2" opacity="0.9" width="27.2118" height="27.2118" rx="3.6" transform="matrix(0.866025 0.5 -0.866025 0.5 68.2539 31.2939)" fill="white" stroke="black" stroke-width="0.24"/>
<g id="Union" opacity="0.9">
<mask id="path-9-inside-1_7838_10315" fill="white">
<path fill-rule="evenodd" clip-rule="evenodd" d="M41.5859 44.8994C41.5859 45.8367 42.2439 46.6852 43.3078 47.2994V47.3003L64.0909 59.2994V59.2999C66.3258 60.5901 70.0903 60.5284 72.4062 59.3015V59.2994L93.1906 47.2995V47.2994C94.2545 46.6852 94.9125 45.8367 94.9125 44.8994V83.2994C94.9125 84.2366 94.2546 85.0851 93.1909 85.6993V85.6994L72.4062 97.6994V97.6934C70.0902 98.9208 66.3256 98.9901 64.0906 97.6997V97.6993L43.3063 85.6994V85.6985C42.2433 85.0844 41.5859 84.2362 41.5859 83.2994V44.8994Z"/>
</mask>
<path fill-rule="evenodd" clip-rule="evenodd" d="M41.5859 44.8994C41.5859 45.8367 42.2439 46.6852 43.3078 47.2994V47.3003L64.0909 59.2994V59.2999C66.3258 60.5901 70.0903 60.5284 72.4062 59.3015V59.2994L93.1906 47.2995V47.2994C94.2545 46.6852 94.9125 45.8367 94.9125 44.8994V83.2994C94.9125 84.2366 94.2546 85.0851 93.1909 85.6993V85.6994L72.4062 97.6994V97.6934C70.0902 98.9208 66.3256 98.9901 64.0906 97.6997V97.6993L43.3063 85.6994V85.6985C42.2433 85.0844 41.5859 84.2362 41.5859 83.2994V44.8994Z" fill="url(#paint0_radial_7838_10315)"/>
<path d="M43.3078 47.2994H43.9078V46.953L43.6078 46.7798L43.3078 47.2994ZM43.3078 47.3003H42.7078V47.6467L43.0078 47.8199L43.3078 47.3003ZM64.0909 59.2994H64.6909V58.953L64.3909 58.7798L64.0909 59.2994ZM64.0909 59.2999H63.4909V59.6463L63.7909 59.8195L64.0909 59.2999ZM72.4062 59.3015L72.6871 59.8317L73.0063 59.6626V59.3015H72.4062ZM72.4062 59.2994L72.1063 58.7798L71.8062 58.953V59.2994H72.4062ZM93.1906 47.2995L93.4906 47.8192L93.7906 47.646V47.2995H93.1906ZM93.1906 47.2994L92.8906 46.7798L92.5906 46.953V47.2994H93.1906ZM93.1909 85.6993L92.8908 85.1797L92.5909 85.3529V85.6993H93.1909ZM93.1909 85.6994L93.4909 86.219L93.7909 86.0458V85.6994H93.1909ZM72.4062 97.6994H71.8062V98.7386L72.7062 98.219L72.4062 97.6994ZM72.4062 97.6934H73.0063V96.6964L72.1253 97.1632L72.4062 97.6934ZM64.0906 97.6997H63.4906V98.0462L63.7906 98.2194L64.0906 97.6997ZM64.0906 97.6993H64.6906V97.3529L64.3906 97.1797L64.0906 97.6993ZM43.3063 85.6994H42.7063V86.0458L43.0063 86.219L43.3063 85.6994ZM43.3063 85.6985H43.9062V85.3522L43.6064 85.179L43.3063 85.6985ZM43.6078 46.7798C42.6346 46.218 42.1859 45.5316 42.1859 44.8994H40.9859C40.9859 46.1418 41.8532 47.1524 43.0078 47.819L43.6078 46.7798ZM43.9078 47.3003V47.2994H42.7078V47.3003H43.9078ZM64.3909 58.7798L43.6078 46.7807L43.0078 47.8199L63.7909 59.819L64.3909 58.7798ZM64.6909 59.2999V59.2994H63.4909V59.2999H64.6909ZM63.7909 59.8195C65.0273 60.5333 66.6408 60.8525 68.2212 60.8446C69.8037 60.8367 71.4243 60.5007 72.6871 59.8317L72.1254 58.7713C71.0722 59.3292 69.6526 59.6375 68.2152 59.6446C66.7756 59.6518 65.3894 59.3567 64.3908 58.7803L63.7909 59.8195ZM73.0063 59.3015V59.2994H71.8062V59.3015H73.0063ZM72.7062 59.819L93.4906 47.8192L92.8906 46.7799L72.1063 58.7798L72.7062 59.819ZM93.7906 47.2995V47.2994H92.5906V47.2995H93.7906ZM93.4906 47.819C94.6452 47.1524 95.5125 46.1418 95.5125 44.8994H94.3125C94.3125 45.5316 93.8638 46.218 92.8906 46.7798L93.4906 47.819ZM94.3125 44.8994V83.2994H95.5125V44.8994H94.3125ZM94.3125 83.2994C94.3125 83.9315 93.8638 84.6178 92.8908 85.1797L93.4909 86.2189C94.6453 85.5523 95.5125 84.5417 95.5125 83.2994H94.3125ZM92.5909 85.6993V85.6994H93.7909V85.6993H92.5909ZM92.8909 85.1798L72.1063 97.1798L72.7062 98.219L93.4909 86.219L92.8909 85.1798ZM73.0063 97.6994V97.6934H71.8062V97.6994H73.0063ZM72.1253 97.1632C71.0717 97.7216 69.6517 98.0317 68.2143 98.0407C66.7745 98.0498 65.3887 97.7564 64.3906 97.1801L63.7906 98.2194C65.0274 98.9334 66.6414 99.2506 68.2218 99.2407C69.8045 99.2308 71.4248 98.8926 72.6872 98.2235L72.1253 97.1632ZM64.6906 97.6997V97.6993H63.4906V97.6997H64.6906ZM43.0063 86.219L63.7906 98.2189L64.3906 97.1797L43.6063 85.1798L43.0063 86.219ZM42.7063 85.6985V85.6994H43.9062V85.6985H42.7063ZM40.9859 83.2994C40.9859 84.5412 41.8524 85.5515 43.0061 86.218L43.6064 85.179C42.6342 84.6173 42.1859 83.9313 42.1859 83.2994H40.9859ZM40.9859 44.8994V83.2994H42.1859V44.8994H40.9859Z" fill="black" mask="url(#path-9-inside-1_7838_10315)"/>
</g>
<path id="Vector" d="M57.8937 79.7776C57.9107 80.7539 57.5472 81.2316 56.9971 81.4336C56.6288 81.5679 56.1783 81.5199 55.6488 81.328L55.6709 82.5923C55.6742 82.7788 55.544 82.859 55.3799 82.7717L54.6171 82.3661C54.5384 82.3243 54.4622 82.2486 54.4054 82.1557C54.3486 82.0628 54.3159 81.9604 54.3143 81.871L54.2926 80.63C53.7046 80.2318 53.0729 79.6663 52.6648 79.0282C52.2453 78.3612 51.961 77.6291 51.8535 76.9395C51.8425 76.8734 51.8434 76.8118 51.8561 76.7592C51.8688 76.7065 51.8929 76.6641 51.9269 76.6349C51.9608 76.6056 52.0036 76.5903 52.0524 76.5899C52.1012 76.5896 52.1547 76.6042 52.2092 76.6328L52.9226 77.0121C53.1108 77.1122 53.2705 77.3561 53.2984 77.5801C53.3333 77.8676 53.3982 78.0951 53.5717 78.4454C53.8763 78.97 54.1548 79.3083 54.958 79.7721C55.2902 79.965 55.7288 80.0855 55.8978 80.0381C56.2209 79.9844 56.4674 79.7229 56.4718 79.2892C56.4755 78.8157 56.37 78.5245 56.2443 78.3151C56.0609 78.0111 55.828 77.7514 55.2895 77.3211C55.2759 77.3101 55.2622 77.2996 55.2483 77.2897L54.0289 76.4145C53.5587 76.0642 53.1112 75.6136 52.7169 75.0933C52.2349 74.473 51.9803 73.7236 51.9675 72.99C51.9512 72.0535 52.2078 71.6873 52.666 71.427C53.0295 71.2209 53.5177 71.24 54.1318 71.4836L54.1103 70.2496C54.107 70.0645 54.2371 69.9829 54.4013 70.0701L55.1653 70.4764C55.3294 70.5636 55.4648 70.7851 55.4681 70.9715L55.4902 72.2399C55.9225 72.5512 56.3152 72.9231 56.6865 73.4356C57.1165 74.0284 57.433 74.7604 57.5494 75.3969C57.5602 75.4587 57.5599 75.5163 57.5484 75.5655C57.5369 75.6147 57.5146 75.6544 57.483 75.6816C57.4514 75.7087 57.4114 75.7228 57.3658 75.7226C57.3202 75.7224 57.2703 75.7081 57.2195 75.6807L56.4942 75.295C56.4167 75.2534 56.3411 75.1835 56.2795 75.0966C56.2179 75.0096 56.1739 74.9106 56.1546 74.8155C56.1048 74.5745 56.0121 74.3253 55.8836 74.0873C55.658 73.6318 55.1308 73.2252 54.6287 72.9582C54.2292 72.7458 53.8266 72.7002 53.6456 72.8118C53.5476 72.869 53.4718 72.9607 53.4232 73.0808C53.3745 73.2008 53.3542 73.3465 53.3636 73.5082C53.3688 73.8085 53.4651 74.1164 53.7034 74.4767C53.9059 74.7108 54.0389 74.9309 54.838 75.4984L55.9301 76.272C56.4394 76.6773 56.8908 77.1944 57.1689 77.576C57.6516 78.2402 57.88 78.9919 57.8937 79.7776ZM57.1862 68.9087C58.846 70.377 60.3077 72.3154 61.3597 74.4434C62.4117 76.5714 62.9995 78.7787 63.0381 80.746C63.0767 82.7133 62.5641 84.3386 61.5744 85.3867C60.5847 86.4348 59.1693 86.8515 57.5329 86.5763C57.4772 86.567 57.4178 86.5406 57.3595 86.4992C57.3012 86.4577 57.2457 86.4025 57.1974 86.3379C57.149 86.2733 57.1093 86.2011 57.0815 86.1274C57.0536 86.0536 57.0384 85.9803 57.037 85.9133L57.0245 85.1975C57.0207 84.9781 57.138 84.849 57.3178 84.8712C58.6095 85.0278 59.7173 84.6494 60.4911 83.7871C61.2649 82.9248 61.6673 81.6203 61.6438 80.0504C61.6203 78.4805 61.1721 76.721 60.3598 75.0102C59.5475 73.2995 58.4104 71.7202 57.1025 70.4862C57.0028 70.3925 56.916 70.2724 56.8538 70.1422C56.7917 70.0119 56.7572 69.8778 56.755 69.7581L56.7425 69.0409C56.7379 68.7763 56.9615 68.7091 57.1862 68.9087ZM52.7278 82.4307C52.9101 82.601 53.033 82.8592 53.0368 83.0772L53.0493 83.793C53.0504 83.8599 53.0376 83.9185 53.0119 83.964C52.9862 84.0095 52.9484 84.0405 52.9014 84.0546C52.8545 84.0687 52.7997 84.0655 52.7417 84.0451C52.6837 84.0248 52.624 83.9879 52.5675 83.9376C50.9097 82.4615 49.4526 80.5175 48.407 78.3871C47.3615 76.2566 46.7818 74.0502 46.7518 72.087C46.7218 70.1239 47.243 68.506 48.2401 67.4673C49.2372 66.4287 50.6584 66.0232 52.2981 66.3097C52.3493 66.3181 52.4039 66.3423 52.4576 66.3803C52.5113 66.4183 52.5625 66.4691 52.607 66.5285C52.6515 66.5879 52.6881 66.6543 52.7137 66.7222C52.7394 66.7901 52.7535 66.8576 52.7548 66.9193L52.7673 67.6377C52.7693 67.7575 52.7389 67.8571 52.6802 67.923C52.6215 67.989 52.5372 68.0181 52.4389 68.0065C51.15 67.8598 50.0473 68.2482 49.2801 69.119C48.5128 69.9899 48.1182 71.3013 48.1496 72.8754C48.181 74.4495 48.6369 76.2103 49.4556 77.9194C50.2743 79.6284 51.4161 81.2031 52.7266 82.43L52.7278 82.4307Z" fill="black"/>
</g>
</g>
<defs>
<filter id="filter0_f_7838_10315" x="0.199219" y="0.5" width="134.398" height="134.4" filterUnits="userSpaceOnUse" color-interpolation-filters="sRGB">
<feFlood flood-opacity="0" result="BackgroundImageFix"/>
<feBlend mode="normal" in="SourceGraphic" in2="BackgroundImageFix" result="shape"/>
<feGaussianBlur stdDeviation="24" result="effect1_foregroundBlur_7838_10315"/>
</filter>
<filter id="filter1_f_7838_10315" x="17" y="18.2002" width="99" height="99" filterUnits="userSpaceOnUse" color-interpolation-filters="sRGB">
<feFlood flood-opacity="0" result="BackgroundImageFix"/>
<feBlend mode="normal" in="SourceGraphic" in2="BackgroundImageFix" result="shape"/>
<feGaussianBlur stdDeviation="12" result="effect1_foregroundBlur_7838_10315"/>
</filter>
<radialGradient id="paint0_radial_7838_10315" cx="0" cy="0" r="1" gradientUnits="userSpaceOnUse" gradientTransform="translate(58.1939 65.2995) rotate(74.3071) scale(37.1757 36.8887)">
<stop stop-color="#C8C8C8"/>
<stop offset="1" stop-color="white"/>
</radialGradient>
</defs>
</svg>
