<svg width="136" height="135" viewBox="0 0 136 135" fill="none" xmlns="http://www.w3.org/2000/svg">
<g id="Group 1707481408">
<circle id="Ellipse 3432" cx="66.6641" cy="67.7002" r="60" fill="white" fill-opacity="0.04"/>
<g id="Ellipse 3438" filter="url(#filter0_f_7838_10339)">
<circle cx="67.8641" cy="67.7" r="19.2" fill="white" fill-opacity="0.8"/>
</g>
<g id="Group 1707481418">
<g id="Group 1707481416">
<path id="Vector 2218" d="M21.0664 77.6809L67.2343 105.466L107.466 82.8501L42.1718 66.6963L21.0664 77.6809Z" stroke="#F4F5F6" stroke-width="0.6" stroke-dasharray="1.2 1.2"/>
<path id="Vector 2215" d="M86.4484 32.6221L83.25 33.9014L96.0436 65.8854L98.6023 64.6061L86.4484 32.6221Z" fill="#ECECEE" stroke="black" stroke-width="0.6"/>
<path id="Vector 2216" d="M92.8473 78.3616V63.3272L92.2076 62.0479L89.6489 62.6875L60.8633 99.789V102.987L88.1865 86.5935C91.078 84.8585 92.8473 81.7337 92.8473 78.3616Z" fill="#F4F5F6" stroke="black" stroke-width="0.6"/>
<path id="Vector 2214" d="M70.4591 51.1727L83.2527 33.9014L95.9029 65.5267C95.9466 65.6361 95.8229 65.7364 95.7249 65.6711L92.1549 63.2911C91.3574 62.7594 90.2892 63.3311 90.2892 64.2895V77.0203C90.2892 80.4255 88.4854 83.5758 85.5487 85.2995L60.8639 99.7884L48.0703 92.1123L72.7551 77.6234C75.6918 75.8997 77.4956 72.7493 77.4956 69.3442V58.2854C77.4956 56.6443 76.6572 55.1169 75.2726 54.2359L70.4591 51.1727Z" fill="url(#paint0_linear_7838_10339)" stroke="black" stroke-width="0.6"/>
<path id="Vector 2217" d="M60.8639 102.987V99.7885L48.0703 92.1123V95.3107L60.8639 102.987Z" fill="#F4F5F6" stroke="black" stroke-width="0.6"/>
</g>
<path id="Vector 2215_2" d="M56.699 42.8574L54.5938 43.6995L63.0149 64.7523L64.6991 63.9102L56.699 42.8574Z" fill="#ECECEE" stroke="black" stroke-width="0.6"/>
<path id="Vector 2216_2" d="M60.9082 71.106V63.0677L60.4872 62.2256L58.803 62.6466L39.8555 87.0679V89.1731L56.2474 79.338C59.139 77.603 60.9082 74.4782 60.9082 71.106Z" fill="#F4F5F6" stroke="black" stroke-width="0.6"/>
<path id="Vector 2214_2" d="M46.1744 55.0667L54.5955 43.6982L62.8732 64.3923C62.9169 64.5017 62.7932 64.6021 62.6952 64.5367L61.0928 63.4684C60.2953 62.9368 59.2272 63.5085 59.2272 64.4669V70.2017C59.2272 73.6069 57.4233 76.7572 54.4867 78.4809L39.8586 87.067L31.4375 82.0143L46.0656 73.4282C49.0022 71.7046 50.806 68.5542 50.806 65.149V60.6491C50.806 59.0079 49.9676 57.4806 48.583 56.5995L46.1744 55.0667Z" fill="url(#paint1_linear_7838_10339)" stroke="black" stroke-width="0.6"/>
<path id="Vector 2217_2" d="M39.8586 89.1736V87.0683L31.4375 82.0156V84.1209L39.8586 89.1736Z" fill="#F4F5F6" stroke="black" stroke-width="0.6"/>
<g id="Group 1000005166">
<path id="Vector" d="M71.2369 65.207L69.1155 66.1815L69.2954 66.5749C66.7168 69.1911 66.147 73.9549 68.171 78.3625C70.1949 82.7702 74.1828 85.4389 77.8485 85.184L78.0285 85.5775L80.1497 84.603C84.3025 82.6952 85.6742 76.8033 83.2118 71.4474C80.7495 66.0914 75.3859 63.2954 71.2331 65.207H71.2369Z" fill="#F4F5F6" stroke="black" stroke-width="0.6" stroke-miterlimit="10"/>
<path id="Vector_2" d="M71.1287 82.4962C73.119 84.3478 75.5439 85.3411 77.8452 85.1837L78.0252 85.5772L80.1464 84.6026C82.9427 83.3171 84.4679 80.2287 84.4229 76.7168L71.125 82.5001L71.1287 82.4962Z" fill="black" stroke="black" stroke-width="0.6" stroke-miterlimit="10"/>
<path id="Vector_3" d="M84.269 75.2723L81.9334 76.1309L81.5586 74.8458L84.0608 74.0957L84.269 75.2723Z" fill="black"/>
<path id="Vector_4" d="M77.9028 85.648C82.0559 83.7396 83.4273 77.85 80.9656 72.4932C78.504 67.1364 73.1418 64.341 68.9887 66.2494C64.8357 68.1578 63.4646 74.0474 65.9262 79.4042C68.3878 84.761 73.7499 87.5564 77.9028 85.648Z" fill="#F4F5F6"/>
<path id="Vector_5" d="M77.0581 75.9076C77.1676 76.8863 76.9101 77.3624 76.2856 77.3359C76.7916 77.8041 77.1754 78.3102 77.4371 78.8542C77.6988 79.3982 77.8143 80.0068 77.7834 80.6799C77.766 81.0227 77.7076 81.2964 77.6081 81.5011C77.5085 81.7057 77.3783 81.8431 77.2175 81.9132C77.0567 81.9833 76.8543 81.9978 76.6101 81.9564C76.366 81.915 76.1089 81.8341 75.8389 81.7136C75.569 81.5931 75.2588 81.4291 74.9084 81.2215L74.9765 83.1732L73.9873 82.5308L73.9203 80.6097C73.5777 80.3873 73.3164 80.2151 73.1364 80.0931L73.2037 82.022L72.2147 81.3796L72.1465 79.4279C72.0694 79.3778 71.9538 79.3014 71.7995 79.1988C71.6453 79.0961 71.5275 79.0183 71.4461 78.9655L70.1615 78.1313L70.3117 76.8599L71.0247 77.3229C71.2388 77.462 71.3584 77.4125 71.3836 77.1745L71.1992 71.8933C71.1314 71.5102 70.9348 71.213 70.6093 71.0016L69.8963 70.5386L69.8525 69.2833L71.2145 70.1753C71.4886 70.3533 71.6962 70.4856 71.8373 70.5722L71.7699 68.6434L72.7591 69.2858L72.8251 71.1763C73.1759 71.3941 73.4369 71.5587 73.6082 71.6699L73.5427 69.7947L74.5319 70.4371L74.5993 72.3659C74.9388 72.6213 75.2405 72.8733 75.5045 73.122C75.7685 73.3708 76.0144 73.6427 76.2424 73.9378C76.4703 74.2329 76.6539 74.5467 76.7931 74.8789C76.9323 75.2112 77.0207 75.5541 77.0581 75.9076ZM75.8228 79.1821C75.8163 78.9984 75.7785 78.8143 75.7093 78.6297C75.6401 78.4451 75.5567 78.2763 75.4594 78.1233C75.362 77.9703 75.2361 77.8125 75.0819 77.65C74.9277 77.4875 74.7858 77.3493 74.6563 77.2352C74.5268 77.1212 74.3675 76.9953 74.1786 76.8577C73.9896 76.72 73.8416 76.6164 73.7346 76.5469C73.6275 76.4774 73.4895 76.3902 73.3205 76.2855C73.1516 76.1807 73.05 76.1173 73.0157 76.0951L73.1061 78.6821C73.1403 78.7043 73.2196 78.7571 73.3438 78.8403C73.4681 78.9234 73.5709 78.9915 73.6523 79.0443C73.7337 79.0972 73.8469 79.167 73.9923 79.2539C74.1376 79.3409 74.2625 79.412 74.367 79.4674C74.4714 79.5227 74.5927 79.5803 74.7308 79.6401C74.8689 79.6999 74.9865 79.7413 75.0836 79.7644C75.1806 79.7875 75.2804 79.8 75.383 79.8017C75.4856 79.8036 75.5675 79.7819 75.6287 79.7369C75.6899 79.6918 75.7388 79.6239 75.7754 79.5329C75.8119 79.4419 75.8277 79.325 75.8228 79.1821ZM75.2395 75.2427C75.2336 75.0743 75.2017 74.9076 75.1436 74.7428C75.0855 74.5779 75.0165 74.4283 74.9365 74.294C74.8564 74.1598 74.7512 74.0216 74.6207 73.8795C74.4902 73.7374 74.371 73.6189 74.263 73.5238C74.1551 73.4288 74.0227 73.3228 73.8658 73.206C73.709 73.0892 73.5846 73.0022 73.4927 72.9449C73.4007 72.8877 73.2851 72.8151 73.1461 72.7274C73.007 72.6395 72.9224 72.5859 72.8925 72.5665L72.9746 74.9162C72.996 74.9301 73.0699 74.9794 73.1963 75.064C73.3227 75.1485 73.4222 75.2132 73.4949 75.2579C73.5677 75.3027 73.6745 75.367 73.8156 75.4512C73.9566 75.5353 74.0738 75.5977 74.1673 75.6385C74.2608 75.6792 74.3701 75.7228 74.4952 75.7691C74.6203 75.8154 74.7224 75.8356 74.8018 75.8298C74.8811 75.8239 74.9579 75.8065 75.0322 75.7775C75.1065 75.7484 75.1609 75.6877 75.1953 75.5954C75.2297 75.503 75.2445 75.3856 75.2395 75.2427Z" fill="black"/>
<path id="Vector_6" d="M77.9028 85.648C82.0559 83.7396 83.4273 77.85 80.9656 72.4932C78.504 67.1364 73.1418 64.341 68.9887 66.2494C64.8357 68.1578 63.4646 74.0474 65.9262 79.4042C68.3878 84.761 73.7499 87.5564 77.9028 85.648Z" stroke="black" stroke-width="0.6" stroke-miterlimit="10"/>
</g>
</g>
</g>
<defs>
<filter id="filter0_f_7838_10339" x="0.664062" y="0.5" width="134.398" height="134.4" filterUnits="userSpaceOnUse" color-interpolation-filters="sRGB">
<feFlood flood-opacity="0" result="BackgroundImageFix"/>
<feBlend mode="normal" in="SourceGraphic" in2="BackgroundImageFix" result="shape"/>
<feGaussianBlur stdDeviation="24" result="effect1_foregroundBlur_7838_10339"/>
</filter>
<linearGradient id="paint0_linear_7838_10339" x1="72.0583" y1="33.9014" x2="72.0583" y2="99.7884" gradientUnits="userSpaceOnUse">
<stop stop-color="#D5D5D5"/>
<stop offset="1" stop-color="white"/>
</linearGradient>
<linearGradient id="paint1_linear_7838_10339" x1="47.2271" y1="43.6982" x2="47.2271" y2="87.067" gradientUnits="userSpaceOnUse">
<stop stop-color="#D5D5D5"/>
<stop offset="1" stop-color="white"/>
</linearGradient>
</defs>
</svg>
