<svg width="404" height="312" viewBox="0 0 404 312" fill="none" xmlns="http://www.w3.org/2000/svg">
<path d="M403.602 262.557C403.777 263.204 403.896 263.854 403.955 264.508L403.457 264.553C403.486 264.868 403.5 265.184 403.5 265.5C403.5 265.816 403.486 266.132 403.457 266.447L403.955 266.492C403.895 267.146 403.777 267.796 403.602 268.443L403.119 268.312C402.956 268.916 402.739 269.518 402.47 270.119L402.926 270.323C402.665 270.908 402.356 271.489 402.001 272.067L401.575 271.805C401.251 272.334 400.886 272.86 400.481 273.385L400.876 273.691C400.481 274.203 400.049 274.713 399.581 275.219L399.214 274.88C398.787 275.342 398.329 275.802 397.841 276.26L398.183 276.625C397.715 277.063 397.22 277.499 396.699 277.933L396.379 277.548C395.883 277.961 395.361 278.372 394.815 278.781L395.115 279.181C394.605 279.563 394.075 279.943 393.523 280.32L393.241 279.908C392.701 280.278 392.142 280.645 391.562 281.011L391.829 281.434C391.29 281.774 390.735 282.112 390.163 282.448L389.91 282.017C389.345 282.349 388.764 282.68 388.166 283.008L388.407 283.446C387.844 283.755 387.268 284.063 386.677 284.369L386.447 283.925C385.868 284.225 385.275 284.523 384.668 284.82L384.888 285.269C384.303 285.556 383.706 285.84 383.096 286.123L382.885 285.67C382.299 285.942 381.7 286.214 381.091 286.483L381.293 286.94C380.685 287.209 380.066 287.477 379.436 287.742L379.241 287.282C378.652 287.531 378.052 287.778 377.443 288.024L377.63 288.488C377.019 288.735 376.398 288.98 375.767 289.225L375.587 288.758C374.976 288.995 374.357 289.23 373.729 289.463L373.904 289.932C373.295 290.158 372.678 290.383 372.053 290.607L371.884 290.137C371.261 290.36 370.63 290.582 369.99 290.802L370.153 291.275C369.536 291.488 368.912 291.7 368.28 291.91L368.122 291.436C367.505 291.641 366.88 291.846 366.248 292.049L366.401 292.525C365.768 292.729 365.128 292.931 364.481 293.133L364.332 292.655C363.71 292.849 363.081 293.041 362.446 293.232L362.591 293.711C361.965 293.9 361.333 294.087 360.696 294.273L360.556 293.793C359.919 293.979 359.277 294.163 358.628 294.347L358.765 294.828C358.132 295.007 357.494 295.185 356.85 295.361L356.718 294.879C356.09 295.051 355.457 295.223 354.819 295.393L354.947 295.876C354.308 296.047 353.663 296.216 353.013 296.384L352.887 295.9C352.245 296.067 351.598 296.232 350.946 296.396L351.068 296.881C350.437 297.039 349.802 297.197 349.162 297.354L349.043 296.868C348.404 297.024 347.761 297.18 347.113 297.334L347.228 297.82C346.579 297.975 345.925 298.128 345.267 298.281L345.154 297.794C344.518 297.941 343.878 298.087 343.234 298.233L343.344 298.72C342.705 298.864 342.061 299.008 341.414 299.15L341.307 298.661C340.66 298.803 340.009 298.944 339.355 299.084L339.459 299.573C338.808 299.713 338.153 299.851 337.494 299.988L337.392 299.499C336.755 299.631 336.114 299.763 335.47 299.894L335.57 300.384C334.925 300.515 334.276 300.645 333.624 300.774L333.527 300.284C332.875 300.413 332.22 300.541 331.561 300.668L331.656 301.159C331.006 301.284 330.353 301.408 329.696 301.532L329.604 301.04C328.962 301.161 328.317 301.281 327.669 301.4L327.759 301.891C327.11 302.01 326.458 302.129 325.803 302.246L325.715 301.754C325.06 301.871 324.402 301.987 323.741 302.102L323.827 302.595C323.177 302.708 322.523 302.82 321.867 302.932L321.783 302.439C321.138 302.549 320.49 302.657 319.839 302.765L319.921 303.259C319.27 303.367 318.616 303.474 317.958 303.58L317.879 303.086C317.222 303.192 316.563 303.298 315.9 303.402L315.978 303.896C315.325 303.999 314.67 304.101 314.011 304.202L313.935 303.708C313.288 303.807 312.639 303.906 311.987 304.004L312.061 304.498C311.408 304.596 310.753 304.693 310.095 304.789L310.022 304.294C309.365 304.39 308.705 304.486 308.043 304.58L308.113 305.075C307.456 305.168 306.797 305.261 306.135 305.353L306.066 304.858C305.418 304.948 304.767 305.037 304.114 305.125L304.181 305.621C303.528 305.709 302.872 305.796 302.214 305.883L302.149 305.388C301.491 305.474 300.832 305.56 300.169 305.645L300.233 306.141C299.571 306.226 298.906 306.31 298.239 306.393L298.177 305.897C297.529 305.978 296.878 306.059 296.225 306.138L296.285 306.634C295.632 306.714 294.976 306.793 294.319 306.871L294.26 306.374C293.603 306.452 292.943 306.529 292.282 306.605L292.339 307.102C291.678 307.178 291.014 307.254 290.348 307.328L290.292 306.832C289.637 306.905 288.979 306.978 288.32 307.05L288.375 307.547C287.721 307.618 287.066 307.688 286.409 307.758L286.357 307.261C285.7 307.33 285.042 307.399 284.381 307.467L284.433 307.965C283.772 308.033 283.109 308.1 282.445 308.166L282.395 307.669C281.732 307.735 281.068 307.801 280.402 307.865L280.45 308.363C279.797 308.426 279.143 308.489 278.487 308.551L278.44 308.053C277.784 308.115 277.127 308.176 276.468 308.236L276.513 308.734C275.854 308.794 275.193 308.854 274.53 308.913L274.486 308.415C273.823 308.473 273.159 308.531 272.493 308.588L272.536 309.086C271.876 309.143 271.215 309.199 270.552 309.254L270.511 308.756C269.856 308.81 269.2 308.864 268.542 308.916L268.582 309.415C267.924 309.468 267.264 309.52 266.603 309.571L266.564 309.073C265.903 309.124 265.241 309.175 264.577 309.224L264.614 309.723C263.95 309.773 263.284 309.822 262.617 309.87L262.581 309.371C261.924 309.419 261.265 309.466 260.605 309.512L260.64 310.01C259.983 310.056 259.324 310.101 258.665 310.146L258.631 309.647C257.972 309.691 257.311 309.734 256.649 309.777L256.682 310.276C256.019 310.319 255.355 310.361 254.69 310.402L254.659 309.903C253.994 309.944 253.328 309.985 252.661 310.025L252.69 310.524C252.034 310.563 251.375 310.601 250.716 310.639L250.688 310.14C250.03 310.177 249.371 310.214 248.711 310.25L248.738 310.749C248.077 310.785 247.415 310.82 246.752 310.855L246.726 310.356C246.063 310.39 245.399 310.424 244.734 310.457L244.759 310.956C244.093 310.989 243.427 311.021 242.758 311.053L242.735 310.554C242.078 310.585 241.421 310.615 240.762 310.644L240.784 311.144C240.125 311.173 239.465 311.202 238.804 311.23L238.783 310.73C238.122 310.758 237.46 310.786 236.797 310.812L236.817 311.312C236.153 311.338 235.489 311.364 234.823 311.389L234.804 310.89C234.139 310.915 233.472 310.939 232.805 310.962L232.822 311.462C232.165 311.485 231.506 311.508 230.846 311.529L230.83 311.03C230.17 311.051 229.51 311.072 228.849 311.093L228.864 311.592C228.203 311.613 227.54 311.632 226.877 311.651L226.863 311.151C226.199 311.17 225.535 311.188 224.87 311.205L224.883 311.705C224.217 311.722 223.551 311.739 222.883 311.755L222.872 311.255C222.213 311.27 221.553 311.285 220.893 311.299L220.903 311.799C220.244 311.813 219.583 311.827 218.921 311.839L218.912 311.339C218.25 311.352 217.588 311.364 216.925 311.375L216.934 311.875C216.27 311.886 215.606 311.896 214.941 311.906L214.933 311.406C214.268 311.416 213.603 311.425 212.936 311.433L212.942 311.933C212.282 311.941 211.62 311.948 210.958 311.955L210.953 311.455C210.293 311.462 209.633 311.468 208.972 311.473L208.976 311.973C208.314 311.978 207.652 311.982 206.988 311.986L206.986 311.486C206.323 311.49 205.659 311.493 204.995 311.495L204.997 311.995C204.332 311.997 203.666 311.999 203 311.999L202.999 311.499C202.666 311.5 202.333 311.5 202 311.5C201.667 311.5 201.333 311.5 201 311.499L201 311.999C200.334 311.999 199.668 311.997 199.003 311.995L199.005 311.495C198.341 311.493 197.677 311.49 197.014 311.486L197.011 311.986C196.348 311.982 195.686 311.978 195.024 311.973L195.028 311.473C194.367 311.468 193.707 311.462 193.047 311.455L193.042 311.955C192.38 311.948 191.718 311.941 191.058 311.933L191.064 311.433C190.397 311.425 189.731 311.416 189.067 311.406L189.059 311.906C188.394 311.896 187.73 311.886 187.066 311.875L187.075 311.375C186.412 311.364 185.75 311.352 185.088 311.339L185.079 311.839C184.417 311.827 183.756 311.813 183.097 311.799L183.107 311.299C182.447 311.285 181.787 311.27 181.128 311.255L181.117 311.755C180.449 311.739 179.782 311.722 179.117 311.705L179.13 311.205C178.465 311.188 177.801 311.17 177.137 311.151L177.123 311.651C176.46 311.632 175.797 311.613 175.136 311.592L175.151 311.093C174.49 311.072 173.829 311.051 173.17 311.03L173.154 311.529C172.494 311.508 171.835 311.485 171.177 311.462L171.195 310.962C170.528 310.939 169.861 310.915 169.196 310.89L169.177 311.389C168.511 311.364 167.847 311.338 167.183 311.312L167.203 310.812C166.54 310.786 165.878 310.758 165.217 310.73L165.196 311.23C164.535 311.202 163.875 311.173 163.216 311.144L163.238 310.644C162.579 310.615 161.922 310.585 161.265 310.554L161.241 311.053C160.573 311.021 159.907 310.989 159.241 310.956L159.266 310.457C158.6 310.424 157.937 310.39 157.274 310.356L157.248 310.855C156.585 310.82 155.923 310.785 155.262 310.749L155.289 310.25C154.629 310.214 153.97 310.177 153.312 310.14L153.284 310.639C152.624 310.601 151.966 310.563 151.309 310.524L151.339 310.025C150.672 309.985 150.006 309.944 149.341 309.903L149.31 310.402C148.645 310.361 147.981 310.319 147.318 310.276L147.351 309.777C146.689 309.734 146.028 309.691 145.369 309.647L145.335 310.146C144.675 310.101 144.017 310.056 143.36 310.01L143.395 309.512C142.735 309.466 142.076 309.419 141.419 309.371L141.383 309.87C140.716 309.822 140.05 309.773 139.385 309.723L139.423 309.224C138.759 309.174 138.097 309.124 137.436 309.073L137.397 309.571C136.736 309.52 136.076 309.468 135.418 309.415L135.458 308.916C134.8 308.864 134.144 308.81 133.489 308.756L133.448 309.254C132.785 309.199 132.124 309.143 131.464 309.086L131.507 308.588C130.841 308.531 130.177 308.473 129.514 308.415L129.47 308.913C128.807 308.854 128.146 308.794 127.487 308.734L127.532 308.236C126.873 308.176 126.216 308.115 125.56 308.053L125.513 308.551C124.857 308.489 124.203 308.426 123.55 308.363L123.598 307.865C122.932 307.801 122.268 307.735 121.605 307.669L121.555 308.166C120.891 308.1 120.228 308.033 119.567 307.965L119.619 307.467C118.958 307.399 118.3 307.33 117.643 307.261L117.591 307.758C116.934 307.688 116.279 307.618 115.625 307.547L115.68 307.05C115.02 306.978 114.363 306.905 113.708 306.832L113.652 307.328C112.986 307.254 112.322 307.178 111.66 307.102L111.718 306.605C111.056 306.529 110.397 306.452 109.74 306.374L109.681 306.871C109.023 306.793 108.368 306.714 107.714 306.634L107.775 306.138C107.122 306.059 106.471 305.978 105.822 305.897L105.76 306.393C105.094 306.31 104.429 306.226 103.767 306.141L103.83 305.645C103.168 305.56 102.508 305.474 101.851 305.387L101.786 305.883C101.128 305.796 100.472 305.709 99.8185 305.621L99.8855 305.125C99.2327 305.037 98.5822 304.948 97.9341 304.858L97.8654 305.353C97.2034 305.261 96.5438 305.168 95.8868 305.075L95.9573 304.58C95.2948 304.486 94.6348 304.39 93.9775 304.294L93.9052 304.789C93.2473 304.693 92.5919 304.596 91.9391 304.498L92.0132 304.004C91.361 303.906 90.7115 303.807 90.0646 303.708L89.9886 304.202C89.3302 304.101 88.6745 303.999 88.0216 303.896L88.0994 303.402C87.4372 303.298 86.7778 303.192 86.1213 303.086L86.0415 303.58C85.3843 303.474 84.73 303.367 84.0786 303.259L84.1604 302.765C83.5097 302.657 82.8619 302.549 82.217 302.439L82.1332 302.932C81.4768 302.82 80.8233 302.708 80.173 302.595L80.2588 302.102C79.5977 301.987 78.9398 301.871 78.2851 301.754L78.1971 302.246C77.5417 302.129 76.8895 302.01 76.2405 301.891L76.3307 301.4C75.6825 301.281 75.0376 301.161 74.3959 301.04L74.3035 301.532C73.6469 301.408 72.9938 301.284 72.3441 301.159L72.4388 300.668C71.7801 300.541 71.1249 300.413 70.4734 300.284L70.3763 300.774C69.724 300.645 69.0753 300.515 68.4302 300.384L68.5297 299.894C67.8855 299.763 67.2449 299.631 66.608 299.499L66.5061 299.988C65.8469 299.851 65.1917 299.713 64.5405 299.573L64.6451 299.084C63.9904 298.944 63.3398 298.803 62.6933 298.661L62.5861 299.15C61.9387 299.008 61.2953 298.864 60.6562 298.72L60.7661 298.233C60.1218 298.087 59.4817 297.941 58.8458 297.794L58.733 298.281C58.0746 298.128 57.4208 297.975 56.7715 297.82L56.8873 297.334C56.2391 297.18 55.5955 297.024 54.9566 296.868L54.8377 297.354C54.1978 297.197 53.5625 297.039 52.9319 296.881L53.0539 296.396C52.4017 296.232 51.7546 296.067 51.1127 295.9L50.9874 296.384C50.3372 296.216 49.6923 296.047 49.0526 295.876L49.1814 295.393C48.5429 295.223 47.9098 295.051 47.2819 294.879L47.1496 295.361C46.5059 295.185 45.8678 295.007 45.2353 294.828L45.3714 294.347C44.723 294.163 44.0806 293.979 43.4443 293.793L43.3042 294.273C42.6665 294.087 42.0349 293.9 41.4093 293.711L41.5535 293.232C40.9185 293.041 40.2898 292.849 39.6676 292.655L39.5191 293.133C38.872 292.931 38.2318 292.729 37.5985 292.525L37.7517 292.049C37.12 291.846 36.4954 291.641 35.8778 291.436L35.7198 291.91C35.088 291.7 34.4635 291.488 33.8465 291.275L34.0095 290.802C33.3701 290.582 32.7387 290.36 32.1155 290.137L31.9469 290.607C31.3218 290.383 30.7048 290.158 30.0961 289.932L30.2704 289.463C29.6425 289.23 29.0234 288.995 28.4133 288.758L28.2327 289.225C27.6023 288.98 26.9812 288.735 26.3698 288.488L26.5571 288.024C25.9479 287.778 25.3483 287.531 24.7585 287.282L24.5641 287.742C23.9341 287.477 23.3149 287.209 22.7069 286.94L22.9091 286.483C22.2995 286.213 21.7013 285.942 21.1145 285.67L20.9039 286.123C20.2943 285.84 19.6968 285.556 19.1117 285.269L19.3315 284.82C18.725 284.523 18.1319 284.225 17.5526 283.925L17.3226 284.369C16.7322 284.063 16.1557 283.755 15.5933 283.446L15.8341 283.008C15.2364 282.679 14.6549 282.349 14.09 282.017L13.8366 282.448C13.2647 282.112 12.7094 281.774 12.1709 281.434L12.4377 281.011C11.8581 280.645 11.2985 280.277 10.759 279.908L10.4764 280.32C9.92537 279.943 9.39478 279.563 8.88496 279.181L9.18467 278.781C8.63849 278.372 8.11702 277.961 7.62055 277.548L7.30084 277.933C6.77955 277.499 6.28486 277.063 5.81719 276.624L6.15919 276.26C5.67061 275.802 5.21286 275.342 4.78625 274.88L4.41898 275.219C3.95115 274.713 3.51915 274.203 3.12359 273.691L3.51938 273.385C3.1141 272.86 2.74917 272.333 2.42488 271.805L1.9988 272.067C1.64391 271.489 1.33518 270.908 1.07348 270.323L1.52984 270.119C1.26089 269.518 1.04434 268.916 0.880529 268.312L0.397971 268.443C0.222521 267.796 0.1045 267.146 0.045067 266.492L0.543013 266.447C0.514381 266.132 0.5 265.816 0.5 265.5C0.5 265.184 0.514384 264.868 0.543023 264.553L0.0450772 264.508C0.104517 263.854 0.222545 263.204 0.398002 262.557L0.880558 262.688C1.04438 262.084 1.26093 261.482 1.52989 260.881L1.07353 260.677C1.33523 260.092 1.64397 259.511 1.99887 258.933L2.42494 259.195C2.74924 258.666 3.11417 258.14 3.51945 257.615L3.12367 257.309C3.51922 256.797 3.95123 256.287 4.41905 255.781L4.78633 256.12C5.21293 255.658 5.67069 255.198 6.15928 254.74L5.81727 254.375C6.28494 253.937 6.77964 253.501 7.30093 253.067L7.62064 253.452C8.11711 253.039 8.63858 252.628 9.18476 252.219L8.88505 251.819C9.39487 251.437 9.92546 251.057 10.4765 250.68L10.7591 251.092C11.2986 250.723 11.8582 250.355 12.4378 249.989L12.171 249.566C12.7095 249.226 13.2648 248.888 13.8366 248.552L14.09 248.983C14.655 248.651 15.2365 248.32 15.8342 247.992L15.5933 247.554C16.1558 247.245 16.7323 246.937 17.3227 246.631L17.5527 247.075C18.132 246.775 18.7251 246.477 19.3316 246.18L19.1118 245.731C19.6969 245.444 20.2944 245.16 20.904 244.877L21.1146 245.33C21.7014 245.058 22.2996 244.786 22.9092 244.517L22.707 244.06C23.315 243.791 23.9342 243.523 24.5642 243.258L24.7586 243.718C25.3484 243.469 25.948 243.222 26.5572 242.976L26.3699 242.512C26.9813 242.265 27.6024 242.02 28.2328 241.775L28.4134 242.242C29.0235 242.005 29.6426 241.77 30.2705 241.537L30.0962 241.068C30.7049 240.842 31.3219 240.617 31.947 240.393L32.1156 240.863C32.7388 240.64 33.3702 240.418 34.0096 240.198L33.8466 239.725C34.4636 239.512 35.0881 239.3 35.7199 239.09L35.8779 239.564C36.4955 239.359 37.1201 239.154 37.7518 238.951L37.5986 238.475C38.2319 238.271 38.8721 238.069 39.5192 237.867L39.6677 238.345C40.2899 238.151 40.9186 237.959 41.5536 237.768L41.4094 237.289C42.035 237.1 42.6666 236.913 43.3043 236.727L43.4444 237.207C44.0807 237.021 44.7231 236.837 45.3715 236.653L45.2354 236.172C45.8679 235.993 46.506 235.815 47.1497 235.639L47.282 236.121C47.9098 235.949 48.543 235.777 49.1815 235.607L49.0527 235.124C49.6924 234.953 50.3373 234.784 50.9875 234.616L51.1128 235.1C51.7547 234.933 52.4018 234.768 53.054 234.604L52.932 234.119C53.5626 233.961 54.1979 233.803 54.8378 233.646L54.9567 234.132C55.5956 233.976 56.2392 233.82 56.8874 233.666L56.7716 233.18C57.4209 233.025 58.0747 232.872 58.7331 232.719L58.8459 233.206C59.4818 233.059 60.1219 232.913 60.7662 232.767L60.6563 232.28C61.2954 232.136 61.9387 231.992 62.5862 231.85L62.6934 232.339C63.3399 232.197 63.9905 232.056 64.6452 231.916L64.5406 231.427C65.1918 231.287 65.847 231.149 66.5062 231.012L66.6081 231.501C67.245 231.369 67.8856 231.237 68.5298 231.106L68.4303 230.616C69.0754 230.485 69.7241 230.355 70.3764 230.226L70.4735 230.716C71.125 230.587 71.7802 230.459 72.4389 230.332L72.3442 229.841C72.9939 229.716 73.647 229.592 74.3036 229.468L74.396 229.96C75.0377 229.839 75.6826 229.719 76.3308 229.6L76.2406 229.109C76.8896 228.99 77.5418 228.871 78.1972 228.754L78.2852 229.246C78.9399 229.129 79.5978 229.013 80.2589 228.898L80.1731 228.405C80.8234 228.292 81.4769 228.18 82.1333 228.068L82.2171 228.561C82.862 228.451 83.5098 228.343 84.1605 228.235L84.0787 227.741C84.7301 227.633 85.3844 227.526 86.0416 227.42L86.1214 227.914C86.7779 227.808 87.4373 227.702 88.0995 227.598L88.0217 227.104C88.6746 227.001 89.3303 226.899 89.9888 226.798L90.0647 227.292C90.7116 227.193 91.3612 227.094 92.0133 226.996L91.9392 226.502C92.592 226.404 93.2474 226.307 93.9053 226.211L93.9776 226.706C94.6349 226.61 95.2949 226.514 95.9574 226.42L95.8869 225.925C96.5439 225.832 97.2035 225.739 97.8655 225.647L97.9342 226.142C98.5823 226.052 99.2328 225.963 99.8856 225.875L99.8186 225.379C100.472 225.291 101.128 225.204 101.786 225.117L101.851 225.612C102.509 225.526 103.168 225.44 103.831 225.355L103.767 224.859C104.429 224.774 105.094 224.69 105.761 224.607L105.823 225.103C106.471 225.022 107.122 224.941 107.775 224.862L107.715 224.366C108.368 224.286 109.024 224.207 109.681 224.129L109.74 224.626C110.397 224.548 111.057 224.471 111.718 224.395L111.661 223.898C112.322 223.822 112.986 223.746 113.652 223.672L113.708 224.168C114.363 224.095 115.021 224.022 115.68 223.95L115.625 223.453C116.279 223.382 116.934 223.312 117.591 223.242L117.643 223.739C118.3 223.67 118.958 223.601 119.619 223.533L119.567 223.035C120.228 222.967 120.891 222.9 121.555 222.834L121.605 223.331C122.268 223.265 122.932 223.199 123.598 223.135L123.55 222.637C124.203 222.574 124.857 222.511 125.513 222.449L125.56 222.947C126.216 222.885 126.873 222.824 127.532 222.764L127.487 222.266C128.146 222.206 128.807 222.146 129.47 222.087L129.514 222.585C130.177 222.527 130.841 222.469 131.507 222.412L131.464 221.914C132.124 221.857 132.785 221.801 133.448 221.746L133.489 222.244C134.144 222.19 134.8 222.136 135.458 222.084L135.418 221.585C136.076 221.532 136.736 221.48 137.397 221.429L137.436 221.927C138.097 221.876 138.759 221.825 139.423 221.776L139.386 221.277C140.05 221.227 140.716 221.178 141.383 221.13L141.419 221.629C142.076 221.581 142.735 221.534 143.395 221.488L143.36 220.99C144.017 220.944 144.676 220.899 145.335 220.854L145.369 221.353C146.028 221.309 146.689 221.266 147.351 221.223L147.318 220.724C147.981 220.681 148.645 220.639 149.31 220.598L149.341 221.097C150.006 221.056 150.672 221.015 151.339 220.975L151.31 220.476C151.966 220.437 152.625 220.399 153.284 220.361L153.312 220.86C153.97 220.823 154.629 220.786 155.289 220.75L155.262 220.251C155.923 220.215 156.585 220.18 157.248 220.145L157.274 220.644C157.937 220.61 158.601 220.576 159.266 220.543L159.241 220.044C159.907 220.011 160.573 219.979 161.241 219.947L161.265 220.446C161.922 220.415 162.579 220.385 163.238 220.356L163.216 219.856C163.875 219.827 164.535 219.798 165.196 219.77L165.217 220.27C165.878 220.242 166.54 220.214 167.203 220.188L167.183 219.688C167.847 219.662 168.511 219.636 169.177 219.611L169.196 220.11C169.861 220.085 170.528 220.061 171.195 220.038L171.178 219.538C171.835 219.515 172.494 219.492 173.154 219.471L173.17 219.97C173.83 219.949 174.49 219.928 175.151 219.907L175.136 219.408C175.797 219.387 176.46 219.368 177.123 219.349L177.137 219.849C177.801 219.83 178.465 219.812 179.13 219.795L179.117 219.295C179.783 219.278 180.449 219.261 181.117 219.245L181.128 219.745C181.787 219.73 182.447 219.715 183.107 219.701L183.097 219.201C183.756 219.187 184.417 219.173 185.079 219.161L185.088 219.661C185.75 219.648 186.412 219.636 187.075 219.625L187.066 219.125C187.73 219.114 188.394 219.104 189.059 219.094L189.067 219.594C189.732 219.584 190.397 219.575 191.064 219.567L191.058 219.067C191.718 219.059 192.38 219.052 193.042 219.045L193.047 219.545C193.707 219.538 194.367 219.532 195.028 219.527L195.024 219.027C195.686 219.022 196.348 219.018 197.012 219.014L197.014 219.514C197.677 219.51 198.341 219.507 199.005 219.505L199.003 219.005C199.668 219.003 200.334 219.001 201 219.001L201.001 219.501C201.334 219.5 201.667 219.5 202 219.5C202.333 219.5 202.667 219.5 203 219.501L203 219.001C203.666 219.001 204.332 219.003 204.997 219.005L204.995 219.505C205.659 219.507 206.323 219.51 206.986 219.514L206.989 219.014C207.652 219.018 208.314 219.022 208.976 219.027L208.972 219.527C209.633 219.532 210.293 219.538 210.953 219.545L210.958 219.045C211.62 219.052 212.282 219.059 212.942 219.067L212.936 219.567C213.603 219.575 214.269 219.584 214.933 219.594L214.941 219.094C215.606 219.104 216.27 219.114 216.934 219.125L216.925 219.625C217.588 219.636 218.25 219.648 218.912 219.661L218.921 219.161C219.583 219.173 220.244 219.187 220.904 219.201L220.893 219.701C221.553 219.715 222.213 219.73 222.872 219.745L222.883 219.245C223.551 219.261 224.218 219.278 224.883 219.295L224.87 219.795C225.535 219.812 226.199 219.83 226.863 219.849L226.877 219.349C227.54 219.368 228.203 219.387 228.864 219.408L228.849 219.907C229.51 219.928 230.171 219.949 230.83 219.97L230.846 219.471C231.506 219.492 232.165 219.515 232.823 219.538L232.805 220.038C233.472 220.061 234.139 220.085 234.804 220.11L234.823 219.611C235.489 219.636 236.153 219.662 236.817 219.688L236.797 220.188C237.46 220.214 238.122 220.242 238.783 220.27L238.804 219.77C239.465 219.798 240.125 219.827 240.784 219.856L240.762 220.356C241.421 220.385 242.078 220.415 242.735 220.446L242.759 219.947C243.427 219.979 244.093 220.011 244.759 220.044L244.734 220.543C245.4 220.576 246.063 220.61 246.726 220.644L246.752 220.145C247.415 220.18 248.077 220.215 248.738 220.251L248.711 220.75C249.371 220.786 250.03 220.823 250.688 220.86L250.716 220.361C251.376 220.399 252.034 220.437 252.691 220.476L252.661 220.975C253.328 221.015 253.994 221.056 254.659 221.097L254.69 220.598C255.355 220.639 256.019 220.681 256.682 220.724L256.649 221.223C257.311 221.266 257.972 221.309 258.631 221.353L258.665 220.854C259.325 220.899 259.983 220.944 260.64 220.99L260.605 221.488C261.265 221.534 261.924 221.581 262.581 221.629L262.617 221.13C263.284 221.178 263.95 221.227 264.615 221.277L264.577 221.776C265.241 221.826 265.903 221.876 266.564 221.927L266.603 221.429C267.264 221.48 267.924 221.532 268.582 221.585L268.542 222.084C269.2 222.136 269.856 222.19 270.511 222.244L270.552 221.746C271.215 221.801 271.876 221.857 272.536 221.914L272.493 222.412C273.159 222.469 273.823 222.527 274.486 222.585L274.53 222.087C275.193 222.146 275.854 222.206 276.513 222.266L276.468 222.764C277.127 222.824 277.784 222.885 278.44 222.947L278.487 222.449C279.143 222.511 279.797 222.574 280.45 222.637L280.402 223.135C281.068 223.199 281.732 223.265 282.395 223.331L282.445 222.834C283.109 222.9 283.772 222.967 284.433 223.035L284.382 223.533C285.042 223.601 285.7 223.67 286.357 223.739L286.409 223.242C287.066 223.312 287.721 223.382 288.375 223.453L288.32 223.95C288.98 224.022 289.637 224.095 290.292 224.168L290.348 223.672C291.014 223.746 291.678 223.822 292.34 223.898L292.282 224.395C292.944 224.471 293.603 224.548 294.26 224.626L294.319 224.129C294.977 224.207 295.632 224.286 296.286 224.366L296.225 224.862C296.878 224.941 297.529 225.022 298.178 225.103L298.24 224.607C298.906 224.69 299.571 224.774 300.233 224.859L300.17 225.355C300.832 225.44 301.492 225.526 302.149 225.613L302.214 225.117C302.872 225.204 303.528 225.291 304.182 225.379L304.115 225.875C304.767 225.963 305.418 226.052 306.066 226.142L306.135 225.647C306.797 225.739 307.456 225.832 308.113 225.925L308.043 226.42C308.705 226.514 309.365 226.61 310.023 226.706L310.095 226.211C310.753 226.307 311.408 226.404 312.061 226.502L311.987 226.996C312.639 227.094 313.289 227.193 313.935 227.292L314.011 226.798C314.67 226.899 315.326 227.001 315.978 227.104L315.901 227.598C316.563 227.702 317.222 227.808 317.879 227.914L317.959 227.42C318.616 227.526 319.27 227.633 319.921 227.741L319.84 228.235C320.49 228.343 321.138 228.451 321.783 228.561L321.867 228.068C322.523 228.18 323.177 228.292 323.827 228.405L323.741 228.898C324.402 229.013 325.06 229.129 325.715 229.246L325.803 228.754C326.458 228.871 327.111 228.99 327.759 229.109L327.669 229.6C328.318 229.719 328.962 229.839 329.604 229.96L329.697 229.468C330.353 229.592 331.006 229.716 331.656 229.841L331.561 230.332C332.22 230.459 332.875 230.587 333.527 230.716L333.624 230.226C334.276 230.355 334.925 230.485 335.57 230.616L335.47 231.106C336.115 231.237 336.755 231.369 337.392 231.501L337.494 231.012C338.153 231.149 338.808 231.287 339.459 231.427L339.355 231.916C340.01 232.056 340.66 232.197 341.307 232.339L341.414 231.85C342.061 231.992 342.705 232.136 343.344 232.28L343.234 232.767C343.878 232.913 344.518 233.059 345.154 233.206L345.267 232.719C345.925 232.872 346.579 233.025 347.228 233.18L347.113 233.666C347.761 233.82 348.405 233.976 349.043 234.132L349.162 233.646C349.802 233.803 350.438 233.961 351.068 234.119L350.946 234.604C351.598 234.768 352.245 234.933 352.887 235.1L353.013 234.616C353.663 234.784 354.308 234.953 354.947 235.124L354.819 235.607C355.457 235.777 356.09 235.949 356.718 236.121L356.85 235.639C357.494 235.815 358.132 235.993 358.765 236.172L358.629 236.653C359.277 236.837 359.919 237.021 360.556 237.207L360.696 236.727C361.333 236.913 361.965 237.1 362.591 237.289L362.446 237.768C363.081 237.959 363.71 238.151 364.332 238.345L364.481 237.867C365.128 238.069 365.768 238.271 366.401 238.475L366.248 238.951C366.88 239.154 367.505 239.359 368.122 239.564L368.28 239.09C368.912 239.3 369.536 239.512 370.154 239.725L369.99 240.198C370.63 240.418 371.261 240.64 371.884 240.863L372.053 240.393C372.678 240.617 373.295 240.842 373.904 241.068L373.73 241.537C374.357 241.77 374.977 242.005 375.587 242.242L375.767 241.775C376.398 242.02 377.019 242.265 377.63 242.512L377.443 242.976C378.052 243.222 378.652 243.469 379.242 243.718L379.436 243.258C380.066 243.523 380.685 243.791 381.293 244.06L381.091 244.517C381.7 244.787 382.299 245.058 382.885 245.33L383.096 244.877C383.706 245.16 384.303 245.444 384.888 245.731L384.669 246.18C385.275 246.477 385.868 246.775 386.447 247.075L386.677 246.631C387.268 246.937 387.844 247.245 388.407 247.554L388.166 247.992C388.764 248.321 389.345 248.651 389.91 248.983L390.163 248.552C390.735 248.888 391.291 249.226 391.829 249.566L391.562 249.989C392.142 250.355 392.702 250.723 393.241 251.092L393.524 250.68C394.075 251.057 394.605 251.437 395.115 251.819L394.815 252.219C395.362 252.628 395.883 253.039 396.379 253.452L396.699 253.067C397.22 253.501 397.715 253.937 398.183 254.376L397.841 254.74C398.329 255.198 398.787 255.658 399.214 256.12L399.581 255.781C400.049 256.287 400.481 256.797 400.876 257.309L400.481 257.615C400.886 258.14 401.251 258.667 401.575 259.195L402.001 258.933C402.356 259.511 402.665 260.092 402.927 260.677L402.47 260.881C402.739 261.482 402.956 262.084 403.119 262.688L403.602 262.557Z" stroke="#777E90" stroke-dasharray="2 2"/>
<path d="M325.361 262.589C325.641 263.222 325.83 263.861 325.926 264.505L325.431 264.579C325.477 264.885 325.5 265.192 325.5 265.5C325.5 265.808 325.477 266.115 325.431 266.421L325.926 266.495C325.83 267.139 325.641 267.778 325.361 268.411L324.904 268.209C324.664 268.753 324.351 269.297 323.965 269.84L324.372 270.13C324.006 270.644 323.581 271.154 323.097 271.659L322.736 271.313C322.311 271.757 321.837 272.199 321.315 272.638L321.637 273.02C321.148 273.432 320.62 273.841 320.054 274.245L319.763 273.838C319.247 274.206 318.698 274.572 318.116 274.934L318.381 275.359C317.837 275.698 317.266 276.034 316.669 276.366L316.425 275.929C315.87 276.239 315.29 276.546 314.688 276.85L314.913 277.296C314.332 277.589 313.731 277.88 313.108 278.168L312.898 277.714C312.309 277.986 311.702 278.256 311.075 278.524L311.272 278.984C310.678 279.237 310.068 279.489 309.442 279.738L309.257 279.273C308.65 279.515 308.028 279.754 307.391 279.991L307.565 280.459C306.954 280.687 306.33 280.912 305.692 281.135L305.527 280.663C304.912 280.878 304.285 281.091 303.645 281.302L303.802 281.777C303.177 281.983 302.54 282.187 301.891 282.389L301.742 281.912C301.122 282.106 300.49 282.297 299.848 282.487L299.99 282.967C299.356 283.155 298.711 283.34 298.057 283.524L297.921 283.043C297.295 283.219 296.659 283.394 296.015 283.566L296.144 284.049C295.504 284.221 294.855 284.39 294.198 284.558L294.074 284.074C293.442 284.235 292.802 284.395 292.154 284.553L292.272 285.039C291.629 285.196 290.978 285.351 290.32 285.505L290.206 285.018C289.568 285.167 288.923 285.314 288.27 285.459L288.379 285.947C287.735 286.091 287.083 286.234 286.425 286.374L286.32 285.885C285.676 286.023 285.025 286.159 284.367 286.294L284.467 286.784C283.823 286.916 283.172 287.047 282.515 287.176L282.418 286.685C281.767 286.813 281.109 286.939 280.446 287.064L280.539 287.556C279.894 287.677 279.245 287.797 278.59 287.915L278.501 287.423C277.847 287.541 277.187 287.658 276.523 287.773L276.608 288.266C275.96 288.378 275.308 288.489 274.65 288.599L274.568 288.106C273.916 288.214 273.259 288.321 272.598 288.427L272.677 288.92C272.021 289.025 271.361 289.129 270.696 289.23L270.62 288.736C269.97 288.836 269.317 288.934 268.658 289.031L268.731 289.525C268.072 289.622 267.408 289.718 266.741 289.812L266.671 289.317C266.019 289.409 265.364 289.499 264.704 289.588L264.771 290.084C264.115 290.172 263.455 290.26 262.792 290.346L262.727 289.85C262.067 289.935 261.404 290.02 260.736 290.102L260.798 290.599C260.145 290.68 259.488 290.759 258.828 290.838L258.769 290.341C258.11 290.419 257.447 290.496 256.781 290.572L256.838 291.069C256.179 291.143 255.516 291.217 254.85 291.289L254.797 290.792C254.141 290.863 253.482 290.933 252.82 291.002L252.871 291.499C252.208 291.568 251.543 291.635 250.874 291.701L250.825 291.203C250.167 291.268 249.507 291.332 248.844 291.394L248.891 291.892C248.232 291.954 247.57 292.014 246.905 292.074L246.86 291.576C246.196 291.635 245.53 291.693 244.86 291.75L244.902 292.248C244.245 292.304 243.584 292.358 242.921 292.412L242.881 291.913C242.221 291.966 241.558 292.018 240.893 292.069L240.931 292.567C240.265 292.618 239.596 292.667 238.925 292.715L238.89 292.216C238.233 292.263 237.573 292.309 236.911 292.354L236.945 292.853C236.283 292.897 235.618 292.941 234.951 292.983L234.92 292.484C234.254 292.526 233.586 292.567 232.916 292.606L232.945 293.105C232.287 293.144 231.626 293.182 230.963 293.218L230.935 292.719C230.273 292.756 229.609 292.791 228.942 292.825L228.968 293.324C228.301 293.358 227.632 293.391 226.961 293.422L226.937 292.923C226.278 292.954 225.618 292.984 224.955 293.012L224.976 293.512C224.313 293.54 223.648 293.568 222.98 293.594L222.961 293.094C222.294 293.12 221.626 293.145 220.956 293.169L220.974 293.668C220.313 293.692 219.651 293.714 218.987 293.735L218.971 293.235C218.308 293.256 217.643 293.276 216.977 293.294L216.991 293.794C216.324 293.812 215.655 293.83 214.985 293.846L214.973 293.346C214.312 293.362 213.649 293.376 212.984 293.39L212.994 293.89C212.331 293.903 211.666 293.915 210.999 293.926L210.991 293.426C210.325 293.437 209.658 293.447 208.989 293.455L208.995 293.955C208.332 293.964 207.667 293.971 207.001 293.977L206.996 293.477C206.333 293.483 205.669 293.488 205.003 293.492L205.006 293.992C204.34 293.995 203.673 293.998 203.004 293.999L203.003 293.499C202.669 293.5 202.335 293.5 202 293.5C201.665 293.5 201.331 293.5 200.997 293.499L200.996 293.999C200.327 293.998 199.66 293.995 198.994 293.992L198.996 293.492C198.331 293.488 197.667 293.483 197.004 293.477L196.999 293.977C196.333 293.971 195.668 293.964 195.005 293.955L195.011 293.455C194.342 293.447 193.675 293.437 193.009 293.426L193.001 293.926C192.334 293.915 191.669 293.903 191.005 293.89L191.016 293.39C190.351 293.376 189.688 293.362 189.027 293.346L189.015 293.846C188.345 293.83 187.676 293.812 187.009 293.794L187.023 293.294C186.357 293.276 185.692 293.256 185.029 293.235L185.013 293.735C184.349 293.714 183.687 293.692 183.026 293.668L183.044 293.169C182.374 293.145 181.705 293.12 181.039 293.094L181.019 293.594C180.352 293.568 179.687 293.54 179.024 293.512L179.045 293.012C178.382 292.984 177.721 292.954 177.062 292.923L177.039 293.422C176.368 293.391 175.699 293.358 175.032 293.324L175.058 292.825C174.391 292.791 173.727 292.756 173.065 292.719L173.037 293.218C172.374 293.182 171.713 293.144 171.055 293.105L171.084 292.606C170.414 292.567 169.746 292.526 169.08 292.484L169.049 292.983C168.382 292.941 167.717 292.897 167.055 292.853L167.089 292.354C166.427 292.309 165.767 292.263 165.11 292.216L165.075 292.715C164.404 292.667 163.735 292.618 163.069 292.567L163.107 292.069C162.442 292.018 161.779 291.966 161.119 291.913L161.079 292.412C160.416 292.358 159.755 292.304 159.098 292.248L159.14 291.75C158.47 291.693 157.804 291.635 157.14 291.576L157.095 292.074C156.43 292.014 155.768 291.954 155.109 291.892L155.156 291.394C154.493 291.332 153.833 291.268 153.175 291.203L153.126 291.701C152.457 291.635 151.792 291.568 151.129 291.499L151.18 291.002C150.518 290.933 149.859 290.863 149.203 290.792L149.15 291.289C148.484 291.217 147.821 291.143 147.162 291.069L147.219 290.572C146.553 290.496 145.89 290.419 145.231 290.341L145.172 290.838C144.512 290.759 143.855 290.68 143.202 290.599L143.264 290.102C142.596 290.02 141.933 289.935 141.273 289.85L141.209 290.346C140.545 290.26 139.885 290.173 139.229 290.084L139.296 289.588C138.636 289.499 137.981 289.409 137.329 289.317L137.259 289.812C136.592 289.718 135.928 289.622 135.269 289.525L135.342 289.031C134.684 288.934 134.03 288.836 133.38 288.736L133.304 289.23C132.639 289.129 131.979 289.025 131.323 288.92L131.402 288.427C130.741 288.321 130.084 288.214 129.432 288.106L129.35 288.599C128.692 288.489 128.04 288.378 127.392 288.266L127.477 287.773C126.813 287.658 126.153 287.541 125.499 287.423L125.41 287.915C124.755 287.797 124.106 287.677 123.461 287.556L123.554 287.064C122.891 286.939 122.233 286.813 121.582 286.685L121.485 287.176C120.828 287.047 120.177 286.916 119.532 286.784L119.633 286.294C118.975 286.159 118.324 286.023 117.68 285.885L117.575 286.374C116.917 286.234 116.265 286.091 115.621 285.947L115.73 285.459C115.077 285.314 114.432 285.167 113.794 285.018L113.68 285.505C113.022 285.351 112.371 285.196 111.728 285.039L111.846 284.553C111.198 284.395 110.558 284.235 109.926 284.074L109.802 284.558C109.145 284.39 108.496 284.221 107.856 284.049L107.985 283.566C107.341 283.394 106.705 283.219 106.079 283.043L105.943 283.524C105.289 283.34 104.644 283.155 104.01 282.967L104.152 282.487C103.51 282.297 102.878 282.106 102.258 281.912L102.109 282.389C101.46 282.187 100.823 281.983 100.198 281.777L100.355 281.302C99.7151 281.091 99.0877 280.878 98.4729 280.663L98.3079 281.135C97.6702 280.912 97.0457 280.687 96.4348 280.459L96.6091 279.991C95.9721 279.754 95.35 279.515 94.7432 279.273L94.5584 279.738C93.9324 279.489 93.3222 279.237 92.7283 278.984L92.9247 278.524C92.2983 278.256 91.6905 277.986 91.1015 277.714L90.8917 278.168C90.2694 277.88 89.6677 277.589 89.0869 277.296L89.3123 276.85C88.7095 276.546 88.1302 276.239 87.5746 275.929L87.3314 276.366C86.7338 276.033 86.1629 275.698 85.6192 275.359L85.8837 274.934C85.3018 274.572 84.7526 274.206 84.2366 273.838L83.9462 274.245C83.3798 273.84 82.8516 273.432 82.3626 273.02L82.6848 272.638C82.1632 272.199 81.6894 271.757 81.2638 271.313L80.9029 271.659C80.4191 271.154 79.9935 270.644 79.6278 270.13L80.0354 269.84C79.6493 269.297 79.3363 268.753 79.0961 268.209L78.6387 268.411C78.3595 267.778 78.1703 267.139 78.0741 266.495L78.5686 266.421C78.523 266.115 78.5 265.808 78.5 265.5C78.5 265.192 78.523 264.885 78.5687 264.579L78.0741 264.505C78.1703 263.861 78.3595 263.222 78.6387 262.589L79.0961 262.791C79.3363 262.247 79.6493 261.703 80.0354 261.16L79.6279 260.87C79.9935 260.356 80.4191 259.846 80.9029 259.341L81.2639 259.687C81.6894 259.243 82.1632 258.801 82.6848 258.362L82.3627 257.98C82.8517 257.568 83.3798 257.159 83.9462 256.755L84.2367 257.162C84.7526 256.794 85.3019 256.428 85.8838 256.066L85.6193 255.641C86.163 255.302 86.7339 254.966 87.3314 254.634L87.5747 255.071C88.1302 254.761 88.7096 254.454 89.3123 254.15L89.087 253.704C89.6677 253.411 90.2694 253.12 90.8917 252.832L91.1016 253.286C91.6905 253.014 92.2984 252.744 92.9247 252.476L92.7283 252.016C93.3222 251.763 93.9324 251.511 94.5585 251.262L94.7433 251.727C95.3501 251.485 95.9721 251.246 96.6092 251.009L96.4348 250.541C97.0458 250.313 97.6702 250.088 98.3079 249.865L98.4729 250.337C99.0878 250.122 99.7151 249.909 100.355 249.698L100.198 249.223C100.823 249.017 101.46 248.813 102.109 248.611L102.258 249.088C102.878 248.894 103.51 248.703 104.152 248.513L104.01 248.033C104.644 247.845 105.289 247.66 105.943 247.476L106.079 247.957C106.705 247.781 107.341 247.606 107.985 247.434L107.856 246.951C108.496 246.779 109.145 246.61 109.802 246.442L109.926 246.926C110.558 246.765 111.198 246.605 111.846 246.447L111.728 245.961C112.371 245.804 113.022 245.649 113.68 245.495L113.794 245.982C114.432 245.833 115.077 245.686 115.73 245.541L115.621 245.053C116.265 244.909 116.917 244.766 117.575 244.626L117.68 245.115C118.324 244.977 118.975 244.841 119.633 244.706L119.532 244.216C120.177 244.084 120.828 243.953 121.485 243.824L121.582 244.315C122.233 244.187 122.891 244.061 123.554 243.936L123.461 243.444C124.106 243.323 124.755 243.203 125.41 243.085L125.499 243.577C126.153 243.459 126.813 243.342 127.477 243.227L127.392 242.734C128.04 242.622 128.692 242.511 129.35 242.401L129.432 242.894C130.084 242.786 130.741 242.679 131.402 242.573L131.323 242.08C131.979 241.975 132.639 241.871 133.304 241.77L133.38 242.264C134.03 242.164 134.683 242.066 135.342 241.969L135.269 241.475C135.928 241.378 136.592 241.282 137.259 241.188L137.329 241.683C137.981 241.591 138.636 241.501 139.296 241.412L139.229 240.916C139.885 240.828 140.545 240.74 141.208 240.654L141.273 241.15C141.933 241.065 142.596 240.98 143.264 240.898L143.202 240.401C143.855 240.32 144.512 240.241 145.172 240.162L145.231 240.659C145.89 240.581 146.553 240.504 147.219 240.428L147.162 239.931C147.821 239.857 148.484 239.783 149.15 239.711L149.203 240.208C149.859 240.137 150.518 240.067 151.18 239.998L151.129 239.501C151.792 239.432 152.457 239.365 153.126 239.299L153.175 239.797C153.833 239.732 154.493 239.668 155.156 239.606L155.109 239.108C155.768 239.046 156.43 238.986 157.095 238.926L157.14 239.424C157.804 239.365 158.47 239.307 159.14 239.25L159.098 238.752C159.755 238.696 160.416 238.642 161.079 238.588L161.119 239.087C161.779 239.034 162.442 238.982 163.107 238.931L163.069 238.433C163.735 238.382 164.404 238.333 165.075 238.285L165.11 238.784C165.767 238.737 166.427 238.691 167.089 238.646L167.055 238.147C167.717 238.103 168.382 238.059 169.049 238.017L169.08 238.516C169.746 238.474 170.414 238.433 171.084 238.394L171.055 237.895C171.713 237.856 172.374 237.818 173.037 237.782L173.065 238.281C173.727 238.244 174.391 238.209 175.058 238.175L175.032 237.676C175.699 237.642 176.368 237.609 177.039 237.578L177.063 238.077C177.722 238.046 178.382 238.016 179.045 237.988L179.024 237.488C179.687 237.46 180.352 237.432 181.02 237.406L181.039 237.906C181.706 237.88 182.374 237.855 183.044 237.831L183.026 237.332C183.687 237.308 184.349 237.286 185.013 237.265L185.029 237.765C185.692 237.744 186.357 237.724 187.023 237.706L187.009 237.206C187.676 237.188 188.345 237.17 189.015 237.154L189.027 237.654C189.688 237.638 190.351 237.624 191.016 237.61L191.006 237.11C191.669 237.097 192.334 237.085 193.001 237.074L193.009 237.574C193.675 237.563 194.342 237.553 195.011 237.545L195.005 237.045C195.668 237.036 196.333 237.029 196.999 237.023L197.004 237.523C197.667 237.517 198.331 237.512 198.997 237.508L198.994 237.008C199.66 237.005 200.327 237.002 200.996 237.001L200.997 237.501C201.331 237.5 201.665 237.5 202 237.5C202.335 237.5 202.669 237.5 203.003 237.501L203.004 237.001C203.673 237.002 204.34 237.005 205.006 237.008L205.004 237.508C205.669 237.512 206.333 237.517 206.996 237.523L207.001 237.023C207.667 237.029 208.332 237.036 208.995 237.045L208.989 237.545C209.658 237.553 210.325 237.563 210.991 237.574L210.999 237.074C211.666 237.085 212.331 237.097 212.995 237.11L212.984 237.61C213.649 237.624 214.312 237.638 214.973 237.654L214.985 237.154C215.655 237.17 216.324 237.188 216.991 237.206L216.977 237.706C217.643 237.724 218.308 237.744 218.971 237.765L218.987 237.265C219.651 237.286 220.313 237.308 220.974 237.332L220.956 237.831C221.626 237.855 222.294 237.88 222.961 237.906L222.981 237.406C223.648 237.432 224.313 237.46 224.976 237.488L224.955 237.988C225.618 238.016 226.279 238.046 226.938 238.077L226.961 237.578C227.632 237.609 228.301 237.642 228.968 237.676L228.942 238.175C229.609 238.209 230.273 238.244 230.935 238.281L230.963 237.782C231.626 237.818 232.287 237.856 232.945 237.895L232.916 238.394C233.586 238.433 234.254 238.474 234.92 238.516L234.951 238.017C235.618 238.059 236.283 238.103 236.945 238.147L236.911 238.646C237.573 238.691 238.233 238.737 238.89 238.784L238.925 238.285C239.596 238.333 240.265 238.382 240.931 238.433L240.893 238.931C241.558 238.982 242.221 239.034 242.881 239.087L242.921 238.588C243.584 238.642 244.245 238.696 244.902 238.752L244.86 239.25C245.53 239.307 246.196 239.365 246.86 239.424L246.905 238.926C247.57 238.986 248.232 239.046 248.891 239.108L248.844 239.606C249.507 239.668 250.167 239.732 250.825 239.797L250.874 239.299C251.543 239.365 252.208 239.432 252.871 239.501L252.82 239.998C253.482 240.067 254.141 240.137 254.797 240.208L254.85 239.711C255.516 239.783 256.179 239.857 256.838 239.931L256.781 240.428C257.447 240.504 258.11 240.581 258.769 240.659L258.828 240.162C259.488 240.241 260.145 240.32 260.798 240.401L260.736 240.898C261.404 240.98 262.067 241.065 262.727 241.15L262.791 240.654C263.455 240.74 264.115 240.827 264.771 240.916L264.704 241.412C265.364 241.501 266.019 241.591 266.671 241.683L266.741 241.188C267.408 241.282 268.072 241.378 268.731 241.475L268.658 241.969C269.316 242.066 269.97 242.164 270.62 242.264L270.696 241.77C271.361 241.871 272.021 241.975 272.677 242.08L272.598 242.573C273.259 242.679 273.916 242.786 274.568 242.894L274.65 242.401C275.308 242.511 275.96 242.622 276.608 242.734L276.523 243.227C277.187 243.342 277.847 243.459 278.501 243.577L278.59 243.085C279.245 243.203 279.894 243.323 280.539 243.444L280.446 243.936C281.109 244.061 281.767 244.187 282.418 244.315L282.515 243.824C283.172 243.953 283.823 244.084 284.468 244.216L284.367 244.706C285.025 244.841 285.676 244.977 286.32 245.115L286.425 244.626C287.083 244.766 287.735 244.909 288.379 245.053L288.27 245.541C288.923 245.686 289.568 245.833 290.206 245.982L290.32 245.495C290.978 245.649 291.629 245.804 292.272 245.961L292.154 246.447C292.802 246.605 293.442 246.765 294.074 246.926L294.198 246.442C294.855 246.61 295.504 246.779 296.144 246.951L296.015 247.434C296.659 247.606 297.295 247.781 297.921 247.957L298.057 247.476C298.711 247.66 299.356 247.845 299.99 248.033L299.848 248.513C300.49 248.703 301.122 248.894 301.742 249.088L301.891 248.611C302.54 248.813 303.177 249.017 303.802 249.223L303.645 249.698C304.285 249.909 304.912 250.122 305.527 250.337L305.692 249.865C306.33 250.088 306.954 250.313 307.565 250.541L307.391 251.009C308.028 251.246 308.65 251.485 309.257 251.727L309.442 251.262C310.068 251.511 310.678 251.763 311.272 252.016L311.075 252.476C311.702 252.744 312.31 253.014 312.898 253.286L313.108 252.832C313.731 253.12 314.332 253.411 314.913 253.704L314.688 254.15C315.29 254.454 315.87 254.761 316.425 255.071L316.669 254.634C317.266 254.967 317.837 255.302 318.381 255.641L318.116 256.066C318.698 256.428 319.247 256.794 319.763 257.162L320.054 256.755C320.62 257.16 321.148 257.568 321.637 257.98L321.315 258.362C321.837 258.801 322.311 259.243 322.736 259.687L323.097 259.341C323.581 259.846 324.007 260.356 324.372 260.87L323.965 261.16C324.351 261.703 324.664 262.247 324.904 262.791L325.361 262.589Z" stroke="#777E90" stroke-dasharray="2 2"/>
<path d="M282.504 187.313L282.632 186.794L282.106 186.701L135.026 160.567L134.497 160.473L134.441 161.007L124.109 260.073L124.06 260.538L124.521 260.618L258.23 283.713L258.689 283.792L258.801 283.34L282.504 187.313Z" fill="url(#paint0_linear_9593_5927)" stroke="black"/>
<mask id="mask0_9593_5927" style="mask-type:alpha" maskUnits="userSpaceOnUse" x="124" y="161" width="159" height="123">
<path d="M282.018 187.193L134.938 161.059L124.606 260.125L258.315 283.22L282.018 187.193Z" fill="url(#paint1_linear_9593_5927)"/>
</mask>
<g mask="url(#mask0_9593_5927)">
<rect x="137.51" y="87" width="79" height="128" transform="rotate(45 137.51 87)" fill="white" fill-opacity="0.1"/>
<rect x="211.734" y="137.776" width="6.74354" height="159.43" transform="rotate(45 211.734 137.776)" fill="white" fill-opacity="0.1"/>
</g>
<circle cx="202" cy="224.92" r="34.0476" fill="white" fill-opacity="0.12"/>
<path fill-rule="evenodd" clip-rule="evenodd" d="M202.931 211.656C199.706 208.604 195.046 207.611 190.857 209.083C193.184 208.852 194.974 211.099 194.23 213.315L189.851 226.362C182.954 229.472 178.68 233.039 179.375 235.633C180.128 238.445 186.509 239.328 195.019 238.199C192.035 238.015 190.011 237.211 189.64 235.827C188.886 233.013 195.247 228.863 203.848 226.559C212.449 224.254 220.033 224.667 220.787 227.481C221.035 228.407 220.513 229.478 219.395 230.579C224.2 227.935 226.962 225.159 226.393 223.035C225.679 220.371 219.915 219.439 212.074 220.308L202.931 211.656ZM211.16 233.061C211.16 232.204 211.854 231.51 212.711 231.51C213.568 231.51 214.263 232.204 214.263 233.061V235.13C214.263 235.987 213.568 236.681 212.711 236.681C211.854 236.681 211.16 235.987 211.16 235.13V233.061ZM205.677 232.958C204.82 232.958 204.125 233.652 204.125 234.509V236.578C204.125 237.435 204.82 238.129 205.677 238.129C206.534 238.129 207.228 237.435 207.228 236.578V234.509C207.228 233.652 206.534 232.958 205.677 232.958Z" fill="white"/>
<path d="M164.719 131.886L134.938 161.059L282.018 187.193L264.393 147.08L164.719 131.886Z" fill="url(#paint2_linear_9593_5927)"/>
<path d="M164.719 131.886L134.938 161.059L282.018 187.193L264.393 147.08L164.719 131.886Z" stroke="url(#paint3_linear_9593_5927)"/>
<mask id="mask1_9593_5927" style="mask-type:alpha" maskUnits="userSpaceOnUse" x="134" y="110" width="149" height="78">
<path d="M182.912 110.913L134.938 161.059L282.018 187.193L249.976 117.619L182.912 110.913Z" fill="white"/>
</mask>
<g mask="url(#mask1_9593_5927)">
<mask id="path-12-outside-1_9593_5927" maskUnits="userSpaceOnUse" x="167.034" y="116.855" width="50.7338" height="69.9166" fill="black">
<rect fill="white" x="167.034" y="116.855" width="50.7338" height="69.9166"/>
<path fill-rule="evenodd" clip-rule="evenodd" d="M180.451 161.4C171.433 147.133 170.585 131.482 178.557 126.443L182.08 124.107C174.492 129.383 175.448 144.776 184.33 158.828L184.33 158.828C193.347 173.095 207.121 180.577 215.093 175.538L211.214 178.11C203.242 183.149 189.469 175.668 180.451 161.4L180.451 161.4ZM182.436 123.87L182.08 124.107C182.197 124.025 182.315 123.947 182.436 123.87Z"/>
</mask>
<path fill-rule="evenodd" clip-rule="evenodd" d="M180.451 161.4C171.433 147.133 170.585 131.482 178.557 126.443L182.08 124.107C174.492 129.383 175.448 144.776 184.33 158.828L184.33 158.828C193.347 173.095 207.121 180.577 215.093 175.538L211.214 178.11C203.242 183.149 189.469 175.668 180.451 161.4L180.451 161.4ZM182.436 123.87L182.08 124.107C182.197 124.025 182.315 123.947 182.436 123.87Z" fill="#3C3C3C"/>
<path d="M180.451 161.4L180.989 162.243C181.453 161.947 181.59 161.331 181.296 160.866L180.451 161.4ZM178.557 126.443L179.092 127.288C179.098 127.284 179.104 127.28 179.11 127.276L178.557 126.443ZM184.33 158.828L184.859 159.676C185.085 159.535 185.245 159.31 185.304 159.05C185.364 158.791 185.317 158.518 185.175 158.294L184.33 158.828ZM184.33 158.828L183.8 157.98C183.574 158.121 183.414 158.346 183.355 158.605C183.295 158.865 183.342 159.137 183.484 159.362L184.33 158.828ZM215.093 175.538L215.646 176.371C216.102 176.068 216.23 175.454 215.932 174.994C215.635 174.534 215.022 174.4 214.559 174.692L215.093 175.538ZM211.214 178.11L211.748 178.956C211.755 178.952 211.761 178.948 211.767 178.944L211.214 178.11ZM180.451 161.4L179.912 160.558C179.448 160.854 179.311 161.469 179.605 161.935L180.451 161.4ZM182.436 123.87L182.989 124.704C183.446 124.401 183.573 123.787 183.276 123.327C182.978 122.867 182.365 122.732 181.902 123.025L182.436 123.87ZM181.296 160.866C176.861 153.849 174.463 146.532 174.131 140.407C173.797 134.244 175.549 129.527 179.092 127.288L178.023 125.598C173.593 128.398 171.783 134.026 172.134 140.515C172.488 147.041 175.023 154.684 179.605 161.935L181.296 160.866ZM179.11 127.276L182.633 124.94L181.527 123.273L178.005 125.609L179.11 127.276ZM181.509 123.286C177.299 126.213 175.62 131.818 176.031 138.241C176.444 144.7 178.971 152.221 183.484 159.362L185.175 158.294C180.807 151.383 178.415 144.182 178.027 138.113C177.636 132.006 179.273 127.277 182.651 124.928L181.509 123.286ZM183.8 157.98L183.8 157.98L184.859 159.676L184.859 159.676L183.8 157.98ZM183.484 159.362C188.067 166.613 193.883 172.182 199.626 175.301C205.337 178.403 211.197 179.183 215.627 176.383L214.559 174.692C211.016 176.931 206.004 176.49 200.581 173.544C195.19 170.616 189.61 165.311 185.175 158.294L183.484 159.362ZM214.54 174.704L210.661 177.277L211.767 178.944L215.646 176.371L214.54 174.704ZM210.68 177.265C207.138 179.504 202.126 179.062 196.702 176.116C191.311 173.188 185.731 167.883 181.296 160.866L179.605 161.935C184.188 169.185 190.004 174.754 195.747 177.874C201.458 180.976 207.318 181.756 211.748 178.956L210.68 177.265ZM180.989 162.243L180.989 162.243L179.912 160.558L179.912 160.558L180.989 162.243ZM181.884 123.037L181.527 123.273L182.633 124.94L182.989 124.704L181.884 123.037ZM182.651 124.928C182.756 124.855 182.862 124.784 182.97 124.716L181.902 123.025C181.769 123.109 181.638 123.196 181.509 123.286L182.651 124.928Z" fill="black" mask="url(#path-12-outside-1_9593_5927)"/>
<mask id="mask2_9593_5927" style="mask-type:alpha" maskUnits="userSpaceOnUse" x="173" y="123" width="43" height="57">
<path fill-rule="evenodd" clip-rule="evenodd" d="M180.451 161.4C171.433 147.133 170.585 131.482 178.557 126.443L182.08 124.107C174.492 129.383 175.448 144.776 184.33 158.828L184.33 158.828C193.347 173.095 207.121 180.577 215.093 175.538L211.214 178.11C203.242 183.149 189.469 175.668 180.451 161.4L180.451 161.4ZM182.436 123.87L182.08 124.107C182.197 124.025 182.315 123.947 182.436 123.87Z" fill="white"/>
</mask>
<g mask="url(#mask2_9593_5927)">
<path d="M203.509 160.389L228.641 187.557L211.136 202.75L185.108 175.694L203.509 160.389Z" fill="#3C3C3C"/>
<path d="M193.225 164.271L194.66 165.861L177.154 181.054L175.588 179.499L193.225 164.271Z" fill="#3C3C3C"/>
</g>
<path d="M182.95 159.584C187.496 166.776 193.253 172.279 198.908 175.351C204.547 178.414 210.195 179.109 214.403 176.449C218.611 173.789 220.407 168.389 220.06 161.981C219.712 155.555 217.211 147.994 212.666 140.802C208.12 133.61 202.363 128.106 196.708 125.035C191.069 121.972 185.42 121.277 181.212 123.936C177.004 126.596 175.208 131.996 175.555 138.404C175.903 144.83 178.404 152.391 182.95 159.584Z" fill="white" stroke="black"/>
<mask id="mask3_9593_5927" style="mask-type:alpha" maskUnits="userSpaceOnUse" x="176" y="122" width="44" height="56">
<ellipse cx="197.808" cy="150.193" rx="30.5614" ry="17.0768" transform="rotate(57.7047 197.808 150.193)" fill="#8E67FF"/>
</mask>
<g mask="url(#mask3_9593_5927)">
<path fill-rule="evenodd" clip-rule="evenodd" d="M202.066 153.414C201.929 153.426 201.217 153.479 199.581 153.507C198.28 153.53 197.338 153.511 197.006 153.502C191.871 153.389 187.694 152.657 187.187 151.702C186.679 150.747 190.008 149.885 194.927 149.593L196.584 152.708C196.924 152.724 197.892 152.758 199.193 152.735C200.755 152.708 201.505 152.635 201.639 152.621L199.984 149.507C205.109 149.623 209.278 150.355 209.784 151.307C210.291 152.26 206.971 153.123 202.061 153.413L202.066 153.414ZM199.817 149.184L198.335 146.397L205.337 146.274L203.076 142.023L184.013 142.356L186.273 146.607L193.274 146.485L194.755 149.272C189.192 149.609 185.459 150.711 186.113 151.941C186.767 153.172 191.592 154.123 197.409 154.263L202.159 163.196L207.219 163.108L202.467 154.172C208.018 153.834 211.745 152.734 211.091 151.504C210.437 150.275 205.623 149.323 199.815 149.183L199.817 149.184Z" fill="black"/>
</g>
</g>
<path d="M225.496 51.0527L134.938 96.6354L161.68 106.968L270.471 59.5615L225.496 51.0527Z" fill="black" stroke="black"/>
<path d="M162.896 113.653L127.038 112.437V95.4197L160.465 102.713L162.896 113.653Z" fill="#8E67FF" stroke="black"/>
<path d="M251.63 58.9536L160.465 102.713L162.896 113.653L281.411 63.8158L251.63 58.9536Z" fill="#6200FF" stroke="black"/>
<path d="M136.154 45.5827C152.199 45.0965 176.875 55.9148 187.207 61.3848C177.685 66.8547 157.061 78.5238 150.741 81.4411C145.678 83.7777 139.888 83.2811 136.117 82.2622C134.504 81.826 133.13 80.8078 132.027 79.5508C113.823 58.7933 116.682 46.1728 136.154 45.5827Z" fill="url(#paint4_linear_9593_5927)" stroke="black"/>
<path d="M204.317 13.6416C195.099 26.7837 190.589 53.3463 189.486 64.9849C199.286 60.0314 220.364 49.2043 226.274 45.524C231.006 42.5763 233.771 37.4645 234.99 33.7542C235.512 32.1659 235.416 30.4586 234.97 28.8471C227.62 2.23427 215.503 -2.30746 204.317 13.6416Z" fill="url(#paint5_linear_9593_5927)" stroke="black"/>
<path d="M132.507 77.1868C135.546 64.4236 179.914 63.2081 181.129 63.8158L172.013 77.1868C157.831 81.4411 130.076 87.3973 132.507 77.1868Z" fill="white" stroke="black"/>
<path d="M232.731 27.95C220.396 23.4804 195.015 59.8911 194.855 61.2407L211.036 60.9648C222.38 51.4497 242.599 31.5256 232.731 27.95Z" fill="white" stroke="black"/>
<path d="M125.822 113.045L118.529 94.8119L224.281 39.5049L231.574 58.9535L125.822 113.045Z" fill="#8E67FF" stroke="black"/>
<path d="M276.549 48.0137L224.698 39.7222L231.574 58.9536L282.019 64.4235L276.549 48.0137Z" fill="#6200FF" stroke="black"/>
<mask id="path-29-outside-2_9593_5927" maskUnits="userSpaceOnUse" x="211.02" y="119.94" width="94" height="54" fill="black">
<rect fill="white" x="211.02" y="119.94" width="94" height="54"/>
<path fill-rule="evenodd" clip-rule="evenodd" d="M300.618 121.94C305.204 135.457 289.313 153.068 265.123 161.275L265.123 161.275C241.3 169.358 218.313 165.306 213.241 152.27L213.02 151.662C213.089 151.867 213.163 152.07 213.241 152.27L215.429 158.281C220.015 171.798 243.342 176.102 267.532 167.894L267.532 167.894C291.722 159.687 307.614 142.076 303.028 128.56L300.618 121.94Z"/>
</mask>
<path fill-rule="evenodd" clip-rule="evenodd" d="M300.618 121.94C305.204 135.457 289.313 153.068 265.123 161.275L265.123 161.275C241.3 169.358 218.313 165.306 213.241 152.27L213.02 151.662C213.089 151.867 213.163 152.07 213.241 152.27L215.429 158.281C220.015 171.798 243.342 176.102 267.532 167.894L267.532 167.894C291.722 159.687 307.614 142.076 303.028 128.56L300.618 121.94Z" fill="white"/>
<path d="M265.123 161.275L264.802 160.328C264.543 160.416 264.332 160.605 264.217 160.852C264.101 161.1 264.092 161.383 264.191 161.638L265.123 161.275ZM300.618 121.94L301.558 121.598C301.371 121.083 300.804 120.815 300.287 120.997C299.77 121.179 299.495 121.743 299.671 122.262L300.618 121.94ZM265.123 161.275L265.444 162.222C265.702 162.134 265.914 161.945 266.029 161.698C266.144 161.451 266.154 161.167 266.055 160.913L265.123 161.275ZM213.02 151.662L213.959 151.32C213.772 150.805 213.205 150.537 212.688 150.719C212.171 150.901 211.897 151.465 212.073 151.984L213.02 151.662ZM215.429 158.281L216.376 157.96C216.374 157.953 216.371 157.946 216.369 157.939L215.429 158.281ZM267.532 167.894L267.853 168.841C268.112 168.754 268.323 168.564 268.438 168.317C268.554 168.07 268.563 167.786 268.464 167.532L267.532 167.894ZM267.532 167.894L267.211 166.947C266.952 167.035 266.741 167.224 266.626 167.472C266.51 167.719 266.501 168.002 266.6 168.257L267.532 167.894ZM303.028 128.56L303.974 128.238C303.972 128.231 303.97 128.224 303.967 128.218L303.028 128.56ZM265.444 162.222C277.67 158.074 287.846 151.536 294.404 144.269C300.937 137.029 304.027 128.875 301.565 121.619L299.671 122.262C301.796 128.523 299.233 135.932 292.919 142.929C286.63 149.898 276.766 156.269 264.802 160.328L265.444 162.222ZM266.055 160.913L266.055 160.913L264.191 161.638L264.191 161.638L266.055 160.913ZM212.309 152.633C215.029 159.623 222.464 164.018 231.978 165.678C241.53 167.343 253.403 166.308 265.444 162.222L264.802 160.328C253.019 164.326 241.488 165.306 232.322 163.707C223.119 162.102 216.525 157.954 214.173 151.908L212.309 152.633ZM212.08 152.004L212.301 152.612L214.181 151.928L213.959 151.32L212.08 152.004ZM214.173 151.908C214.1 151.721 214.032 151.532 213.967 151.341L212.073 151.984C212.147 152.202 212.226 152.419 212.309 152.633L214.173 151.908ZM216.369 157.939L214.181 151.928L212.301 152.612L214.489 158.623L216.369 157.939ZM267.211 166.947C255.247 171.007 243.542 171.954 234.311 170.251C225.042 168.541 218.5 164.221 216.376 157.96L214.482 158.603C216.944 165.858 224.358 170.449 233.948 172.218C243.574 173.994 255.628 172.989 267.853 168.841L267.211 166.947ZM266.6 168.257L266.6 168.257L268.464 167.532L268.464 167.532L266.6 168.257ZM302.081 128.881C304.205 135.142 301.642 142.551 295.328 149.548C289.039 156.517 279.175 162.888 267.211 166.947L267.853 168.841C280.079 164.693 290.255 158.155 296.813 150.888C303.346 143.648 306.436 135.494 303.974 128.238L302.081 128.881ZM299.679 122.282L302.088 128.902L303.967 128.218L301.558 121.598L299.679 122.282Z" fill="black" mask="url(#path-29-outside-2_9593_5927)"/>
<mask id="mask4_9593_5927" style="mask-type:alpha" maskUnits="userSpaceOnUse" x="213" y="121" width="91" height="52">
<path fill-rule="evenodd" clip-rule="evenodd" d="M300.618 121.94C305.204 135.457 289.313 153.068 265.123 161.275L265.123 161.275C241.3 169.358 218.313 165.306 213.241 152.27L213.02 151.662C213.089 151.867 213.163 152.07 213.241 152.27L215.429 158.281C220.015 171.798 243.342 176.102 267.532 167.894L267.532 167.894C291.722 159.687 307.614 142.076 303.028 128.56L300.618 121.94Z" fill="white"/>
</mask>
<g mask="url(#mask4_9593_5927)">
<path d="M274.222 133.611L323.107 106.27L339.251 137.413L290.214 166.111L274.222 133.611Z" fill="#3C3C3C"/>
<path d="M276.286 150.119L279.135 148.571L295.279 179.715L292.434 181.468L276.286 150.119Z" fill="#3C3C3C"/>
</g>
<path d="M265.663 163.33C277.823 159.204 287.922 152.707 294.412 145.515C300.89 138.336 303.849 130.368 301.471 123.361C299.094 116.354 291.897 111.831 282.388 110.077C272.861 108.319 260.894 109.309 248.734 113.435C236.574 117.561 226.475 124.057 219.985 131.25C213.507 138.429 210.548 146.397 212.926 153.404C215.303 160.411 222.5 164.933 232.009 166.688C241.536 168.446 253.503 167.455 265.663 163.33Z" fill="url(#paint6_linear_9593_5927)" stroke="black"/>
<mask id="mask5_9593_5927" style="mask-type:alpha" maskUnits="userSpaceOnUse" x="212" y="109" width="90" height="59">
<ellipse cx="257.199" cy="138.382" rx="46.2518" ry="25.8441" transform="rotate(-18.7418 257.199 138.382)" fill="#8E67FF"/>
</mask>
<g mask="url(#mask5_9593_5927)">
<path d="M263.415 148.099C265.929 146.467 266.367 145.323 266.082 144.096C265.947 143.508 265.656 142.837 264.929 141.59C264.119 140.213 263.236 138.883 262.338 137.501C261.086 135.674 260.084 134.238 260.308 133.539C260.407 133.291 260.704 132.975 261.359 132.55C262.562 131.769 263.857 130.866 266.197 132.11C267.288 132.69 268.427 133.425 267.776 134.154C267.516 134.446 267.406 134.517 266.823 134.895L264.929 136.126L273.351 140.603C275.37 139.354 278.383 137.643 278.151 135.583C278.002 133.653 275.325 132.015 272.923 130.566L277.185 127.798L272.87 125.504L268.608 128.272C265.915 127.012 262.869 125.736 259.608 125.766C256.383 125.773 254.208 126.94 252.387 128.123C249.764 129.826 249.362 130.946 249.663 132.225C249.917 133.349 250.846 134.833 251.012 135.094C251.791 136.369 252.534 137.667 253.365 138.969C254.492 140.816 255.328 141.992 254.958 142.785C254.744 143.231 254.016 143.704 253.906 143.775C252.996 144.367 251.804 145.325 248.685 143.666C246.865 142.699 246.824 141.989 247.199 141.5C247.465 141.081 248.063 140.754 248.209 140.66L250.031 139.477L241.245 134.805C237.425 137.163 235.958 138.362 236.616 140.39C237.28 142.292 239.557 143.761 240.368 144.278C240.919 144.657 241.522 145.064 242.161 145.447L237.498 148.475L241.813 150.769L246.476 147.741C249.346 149.009 251.992 150.115 255.331 150.341C259.075 150.611 261.375 149.424 263.415 148.099Z" fill="black"/>
<rect x="191.429" y="133.719" width="0.71913" height="85.6349" transform="rotate(-60.1233 191.429 133.719)" fill="white"/>
<rect x="183.429" y="145.481" width="11.8982" height="85.6349" transform="rotate(-60.1233 183.429 145.481)" fill="white"/>
</g>
<circle cx="66.6111" cy="124.611" r="3.61111" fill="#8E67FF"/>
<circle cx="107.079" cy="198.095" r="2.06349" fill="#8E67FF"/>
<path d="M314.578 213.502L313.227 221.407L318.349 227.578L310.444 226.227L304.273 231.349L305.624 223.444L300.502 217.274L308.407 218.624L314.578 213.502Z" fill="#8E67FF"/>
<defs>
<linearGradient id="paint0_linear_9593_5927" x1="203.312" y1="161.059" x2="203.312" y2="283.22" gradientUnits="userSpaceOnUse">
<stop stop-color="#8E67FF"/>
<stop offset="1" stop-color="#6200FF"/>
</linearGradient>
<linearGradient id="paint1_linear_9593_5927" x1="203.312" y1="161.059" x2="203.312" y2="283.22" gradientUnits="userSpaceOnUse">
<stop stop-color="#8E67FF"/>
<stop offset="1" stop-color="#6200FF"/>
</linearGradient>
<linearGradient id="paint2_linear_9593_5927" x1="208.478" y1="131.886" x2="208.478" y2="187.193" gradientUnits="userSpaceOnUse">
<stop stop-color="white" stop-opacity="0"/>
<stop offset="1" stop-color="white"/>
</linearGradient>
<linearGradient id="paint3_linear_9593_5927" x1="208.478" y1="131.886" x2="208.478" y2="187.193" gradientUnits="userSpaceOnUse">
<stop stop-opacity="0"/>
<stop offset="1"/>
</linearGradient>
<linearGradient id="paint4_linear_9593_5927" x1="187.207" y1="64.3399" x2="119.841" y2="64.3399" gradientUnits="userSpaceOnUse">
<stop stop-color="#3C3C3C"/>
<stop offset="1" stop-color="#A2A2A2"/>
</linearGradient>
<linearGradient id="paint5_linear_9593_5927" x1="191.956" y1="66.6077" x2="228.951" y2="10.3095" gradientUnits="userSpaceOnUse">
<stop stop-color="#03040B"/>
<stop offset="1" stop-color="white"/>
</linearGradient>
<linearGradient id="paint6_linear_9593_5927" x1="240.011" y1="120.193" x2="268.91" y2="174.383" gradientUnits="userSpaceOnUse">
<stop stop-color="white"/>
<stop offset="0.13" stop-color="#BCA4FF"/>
<stop offset="0.275" stop-color="white"/>
<stop offset="0.42" stop-color="#ACBEFF"/>
<stop offset="0.555" stop-color="white"/>
<stop offset="0.675" stop-color="#DEDEDE"/>
<stop offset="0.84" stop-color="white"/>
<stop offset="1" stop-color="#F5DEFF"/>
</linearGradient>
</defs>
</svg>
