<svg width="121" height="121" viewBox="0 0 121 121" fill="none" xmlns="http://www.w3.org/2000/svg">
<g id="Group 1707481138">
<circle id="Ellipse 3432" cx="60.332" cy="60.7002" r="60" fill="white" fill-opacity="0.04"/>
<path id="Ellipse 3453" d="M77.5767 90.4438C77.7312 90.7552 77.8372 91.0739 77.8912 91.3985L77.6446 91.4395C77.67 91.5919 77.6828 91.7454 77.6828 91.9002C77.6828 92.0549 77.67 92.2085 77.6446 92.3609L77.8912 92.4019C77.8372 92.7265 77.7312 93.0452 77.5767 93.3565L77.3528 93.2454C77.2195 93.5139 77.0463 93.7791 76.8342 94.0399L77.0282 94.1976C76.8264 94.4458 76.5929 94.6879 76.3295 94.9232L76.163 94.7367C75.9314 94.9436 75.6749 95.1459 75.3947 95.3428L75.5385 95.5474C75.2743 95.7331 74.9906 95.9134 74.6885 96.088L74.5634 95.8715C74.2875 96.0309 73.9954 96.1857 73.688 96.3353L73.7975 96.5601C73.5036 96.7032 73.1965 96.8415 72.8769 96.9746L72.7807 96.7438C72.4829 96.8679 72.1738 96.9875 71.854 97.1025L71.9386 97.3377C71.6287 97.4491 71.3092 97.556 70.9807 97.6583L70.9064 97.4196C70.5955 97.5163 70.2762 97.6089 69.949 97.697L70.0141 97.9384C69.6951 98.0243 69.3689 98.1061 69.0359 98.1834L68.9794 97.9399C68.6593 98.0142 68.3328 98.0845 68.0002 98.1505L68.0489 98.3957C67.7243 98.4601 67.3941 98.5205 67.0587 98.5767L67.0174 98.3301C66.6925 98.3845 66.3626 98.435 66.0281 98.4814L66.0624 98.729C65.733 98.7747 65.3993 98.8163 65.0614 98.8539L65.0338 98.6055C64.705 98.642 64.3722 98.6747 64.0359 98.7033L64.0571 98.9524C63.7255 98.9806 63.3905 99.005 63.0523 99.0253L63.0374 98.7757C62.7069 98.7956 62.3733 98.8115 62.037 98.8235L62.0459 99.0734C61.7126 99.0852 61.3766 99.0932 61.0382 99.0972L61.0352 98.8472C60.8684 98.8492 60.7009 98.8502 60.5328 98.8502C60.3648 98.8502 60.1973 98.8492 60.0304 98.8472L60.0274 99.0972C59.689 99.0932 59.3531 99.0852 59.0198 99.0734L59.0287 98.8235C58.6923 98.8115 58.3588 98.7956 58.0283 98.7757L58.0133 99.0253C57.6751 99.005 57.3401 98.9806 57.0085 98.9524L57.0297 98.7033C56.6934 98.6747 56.3607 98.642 56.0318 98.6055L56.0042 98.8539C55.6664 98.8163 55.3326 98.7747 55.0032 98.729L55.0376 98.4814C54.703 98.435 54.3731 98.3845 54.0482 98.3301L54.0069 98.5767C53.6715 98.5205 53.3413 98.4601 53.0167 98.3957L53.0654 98.1505C52.7329 98.0845 52.4064 98.0142 52.0862 97.9399L52.0297 98.1834C51.6967 98.1061 51.3705 98.0243 51.0515 97.9384L51.1166 97.697C50.7894 97.6089 50.4702 97.5163 50.1592 97.4196L50.0849 97.6583C49.7564 97.556 49.4369 97.4491 49.127 97.3377L49.2116 97.1025C48.8919 96.9875 48.5827 96.8679 48.2849 96.7438L48.1888 96.9746C47.8691 96.8415 47.562 96.7032 47.2681 96.5601L47.3776 96.3353C47.0702 96.1857 46.7781 96.0309 46.5022 95.8715L46.3771 96.088C46.075 95.9134 45.7913 95.7331 45.5271 95.5474L45.6709 95.3428C45.3907 95.1459 45.1343 94.9436 44.9027 94.7367L44.7361 94.9232C44.4728 94.6879 44.2392 94.4458 44.0374 94.1976L44.2314 94.0399C44.0193 93.7791 43.8462 93.5139 43.7129 93.2454L43.4889 93.3565C43.3344 93.0452 43.2284 92.7265 43.1744 92.4019L43.421 92.3609C43.3957 92.2085 43.3828 92.0549 43.3828 91.9002C43.3828 91.7454 43.3957 91.5919 43.421 91.4395L43.1744 91.3985C43.2284 91.0739 43.3344 90.7552 43.4889 90.4438L43.7129 90.555C43.8462 90.2865 44.0193 90.0213 44.2314 89.7605L44.0374 89.6027C44.2392 89.3546 44.4728 89.1125 44.7361 88.8772L44.9027 89.0637C45.1343 88.8568 45.3907 88.6545 45.6709 88.4576L45.5271 88.253C45.7913 88.0673 46.075 87.887 46.3771 87.7124L46.5022 87.9289C46.7781 87.7695 47.0702 87.6147 47.3776 87.465L47.2681 87.2403C47.562 87.0972 47.8691 86.9589 48.1888 86.8258L48.2849 87.0566C48.5827 86.9325 48.8918 86.8129 49.2116 86.6979L49.127 86.4627C49.4369 86.3513 49.7564 86.2443 50.0849 86.1421L50.1592 86.3808C50.4702 86.2841 50.7894 86.1915 51.1166 86.1034L51.0515 85.862C51.3705 85.7761 51.6967 85.6943 52.0297 85.617L52.0862 85.8605C52.4064 85.7862 52.7329 85.7159 53.0654 85.6499L53.0167 85.4047C53.3413 85.3403 53.6715 85.2799 54.0069 85.2237L54.0482 85.4703C54.3731 85.4158 54.703 85.3654 55.0376 85.319L55.0032 85.0714C55.3326 85.0257 55.6664 84.984 56.0042 84.9465L56.0318 85.1949C56.3607 85.1584 56.6934 85.1257 57.0297 85.0971L57.0085 84.848C57.3401 84.8197 57.6751 84.7954 58.0133 84.7751L58.0283 85.0247C58.3588 85.0048 58.6923 84.9889 59.0287 84.9769L59.0198 84.727C59.3531 84.7152 59.689 84.7072 60.0274 84.7032L60.0304 84.9532C60.1973 84.9512 60.3648 84.9502 60.5328 84.9502C60.7009 84.9502 60.8684 84.9512 61.0352 84.9532L61.0382 84.7032C61.3766 84.7072 61.7126 84.7152 62.0459 84.727L62.037 84.9769C62.3733 84.9889 62.7068 85.0048 63.0374 85.0247L63.0523 84.7751C63.3905 84.7954 63.7255 84.8197 64.0571 84.848L64.0359 85.0971C64.3722 85.1257 64.705 85.1584 65.0338 85.1949L65.0614 84.9465C65.3993 84.984 65.733 85.0257 66.0624 85.0714L66.0281 85.319C66.3626 85.3654 66.6925 85.4158 67.0174 85.4703L67.0587 85.2237C67.3941 85.2799 67.7243 85.3403 68.0489 85.4047L68.0002 85.6499C68.3327 85.7159 68.6593 85.7862 68.9794 85.8605L69.0359 85.617C69.3689 85.6943 69.6951 85.7761 70.0141 85.862L69.949 86.1034C70.2762 86.1915 70.5955 86.2841 70.9064 86.3808L70.9807 86.1421C71.3092 86.2443 71.6287 86.3513 71.9386 86.4627L71.854 86.6979C72.1738 86.8129 72.4829 86.9325 72.7807 87.0566L72.8769 86.8258C73.1965 86.9589 73.5036 87.0972 73.7975 87.2403L73.688 87.465C73.9954 87.6147 74.2875 87.7695 74.5634 87.9289L74.6885 87.7124C74.9906 87.887 75.2743 88.0673 75.5385 88.253L75.3947 88.4576C75.6749 88.6545 75.9314 88.8568 76.1629 89.0637L76.3295 88.8772C76.5929 89.1125 76.8264 89.3546 77.0282 89.6027L76.8342 89.7605C77.0463 90.0212 77.2195 90.2865 77.3528 90.555L77.5767 90.4438Z" stroke="#F4F5F6" stroke-width="0.5" stroke-dasharray="1 1"/>
<path id="Ellipse 3454" d="M92.1266 90.383C92.218 90.7145 92.2798 91.0497 92.3109 91.3883L92.0619 91.4111C92.0769 91.5734 92.0844 91.7364 92.0844 91.9002C92.0844 92.064 92.0769 92.227 92.0619 92.3893L92.3109 92.4121C92.2798 92.7506 92.218 93.0859 92.1266 93.4174L91.8856 93.3509C91.8 93.6613 91.6872 93.969 91.5478 94.2738L91.7751 94.3778C91.6363 94.6813 91.4724 94.9811 91.2844 95.2769L91.0734 95.1427C90.901 95.414 90.7071 95.6825 90.4925 95.9479L90.6868 96.1051C90.4778 96.3635 90.2501 96.6182 90.0043 96.8692L89.8257 96.6942C89.5975 96.9272 89.353 97.1572 89.0926 97.3839L89.2568 97.5725C89.0056 97.7912 88.7403 98.0067 88.4615 98.2186L88.3102 98.0196C88.049 98.2181 87.7753 98.4137 87.4897 98.6062L87.6294 98.8135C87.3525 99.0001 87.0647 99.1837 86.7663 99.364L86.637 99.15C86.3538 99.3212 86.0608 99.4896 85.7583 99.655L85.8782 99.8743C85.5839 100.035 85.2809 100.193 84.9695 100.348L84.8581 100.125C84.5598 100.273 84.2537 100.419 83.9399 100.562L84.0435 100.789C83.7379 100.928 83.4252 101.065 83.1056 101.198L83.0092 100.968C82.7015 101.097 82.3874 101.223 82.067 101.346L82.1568 101.579C81.8428 101.7 81.5229 101.819 81.1973 101.934L81.1136 101.699C80.7979 101.811 80.4767 101.92 80.1503 102.027L80.2281 102.265C79.9071 102.37 79.581 102.473 79.2501 102.573L79.1777 102.334C78.8554 102.431 78.5283 102.526 78.1968 102.619L78.2641 102.86C77.9392 102.951 77.6101 103.039 77.2768 103.125L77.2145 102.883C76.889 102.966 76.5595 103.048 76.2263 103.127L76.2839 103.37C75.9544 103.448 75.6212 103.524 75.2845 103.597L75.2313 103.353C74.901 103.425 74.5672 103.495 74.2301 103.562L74.279 103.807C73.9476 103.873 73.6129 103.937 73.2753 103.998L73.2306 103.752C72.8987 103.812 72.5639 103.87 72.2262 103.926L72.2668 104.173C71.9317 104.228 71.5937 104.281 71.2531 104.332L71.2164 104.084C70.8822 104.134 70.5454 104.181 70.2062 104.226L70.2391 104.474C69.9032 104.519 69.5649 104.561 69.2242 104.601L69.195 104.353C68.8586 104.393 68.52 104.43 68.1792 104.465L68.2047 104.714C67.8669 104.748 67.5269 104.781 67.1849 104.811L67.163 104.562C66.8262 104.592 66.4875 104.619 66.147 104.645L66.1655 104.894C65.8261 104.919 65.485 104.942 65.142 104.963L65.127 104.713C64.789 104.733 64.4494 104.752 64.108 104.767L64.1197 105.017C63.7804 105.033 63.4395 105.047 63.097 105.058L63.0888 104.808C62.7494 104.819 62.4085 104.828 62.0662 104.835L62.0712 105.085C61.7317 105.092 61.3908 105.096 61.0486 105.099L61.047 104.849C60.8764 104.85 60.7056 104.85 60.5344 104.85C60.3632 104.85 60.1923 104.85 60.0218 104.849L60.0201 105.099C59.6779 105.096 59.3371 105.092 58.9976 105.085L59.0025 104.835C58.6602 104.828 58.3193 104.819 57.98 104.808L57.9717 105.058C57.6293 105.047 57.2884 105.033 56.9491 105.017L56.9607 104.767C56.6194 104.752 56.2797 104.733 55.9418 104.713L55.9267 104.963C55.5838 104.942 55.2426 104.919 54.9033 104.894L54.9218 104.645C54.5812 104.619 54.2425 104.592 53.9058 104.562L53.8838 104.811C53.5418 104.781 53.2018 104.748 52.864 104.714L52.8896 104.465C52.5487 104.43 52.2101 104.393 51.8738 104.353L51.8445 104.601C51.5039 104.561 51.1656 104.519 50.8297 104.474L50.8626 104.226C50.5233 104.181 50.1865 104.134 49.8524 104.084L49.8156 104.332C49.475 104.281 49.1371 104.228 48.8019 104.173L48.8426 103.926C48.5049 103.87 48.17 103.812 47.8382 103.752L47.7935 103.998C47.4558 103.937 47.1212 103.873 46.7898 103.807L46.8386 103.562C46.5015 103.495 46.1677 103.425 45.8374 103.353L45.7843 103.597C45.4475 103.524 45.1143 103.448 44.7848 103.37L44.8425 103.127C44.5092 103.048 44.1798 102.966 43.8543 102.883L43.7919 103.125C43.4587 103.039 43.1296 102.951 42.8047 102.86L42.8719 102.619C42.5404 102.526 42.2134 102.431 41.891 102.334L41.8186 102.573C41.4877 102.473 41.1617 102.37 40.8406 102.265L40.9185 102.027C40.592 101.92 40.2708 101.811 39.9551 101.699L39.8714 101.934C39.5458 101.819 39.2259 101.7 38.9119 101.579L39.0018 101.346C38.6814 101.223 38.3672 101.097 38.0596 100.968L37.9631 101.198C37.6436 101.065 37.3309 100.928 37.0252 100.789L37.1288 100.562C36.8151 100.419 36.5089 100.273 36.2107 100.125L36.0993 100.348C35.7879 100.193 35.4849 100.035 35.1906 99.8743L35.3105 99.655C35.008 99.4896 34.715 99.3212 34.4317 99.15L34.3024 99.364C34.0041 99.1837 33.7163 99.0001 33.4393 98.8135L33.579 98.6062C33.2934 98.4137 33.0198 98.2181 32.7586 98.0196L32.6073 98.2186C32.3284 98.0067 32.0631 97.7912 31.8119 97.5725L31.9761 97.3839C31.7158 97.1572 31.4712 96.9272 31.243 96.6942L31.0645 96.8692C30.8187 96.6182 30.5909 96.3635 30.3819 96.1051L30.5763 95.9479C30.3616 95.6826 30.1678 95.414 29.9953 95.1427L29.7843 95.2769C29.5964 94.9811 29.4325 94.6813 29.2936 94.3778L29.521 94.2738C29.3815 93.969 29.2687 93.6613 29.1832 93.3509L28.9421 93.4174C28.8508 93.0859 28.789 92.7506 28.7579 92.4121L29.0068 92.3893C28.9919 92.227 28.9844 92.064 28.9844 91.9002C28.9844 91.7364 28.9919 91.5734 29.0068 91.4111L28.7579 91.3882C28.789 91.0497 28.8508 90.7145 28.9421 90.383L29.1832 90.4494C29.2687 90.1391 29.3815 89.8314 29.521 89.5266L29.2936 89.4226C29.4325 89.1191 29.5964 88.8193 29.7843 88.5235L29.9953 88.6576C30.1678 88.3863 30.3616 88.1178 30.5763 87.8525L30.3819 87.6953C30.5909 87.4369 30.8187 87.1821 31.0644 86.9312L31.243 87.1062C31.4712 86.8732 31.7158 86.6432 31.9761 86.4165L31.8119 86.2279C32.0631 86.0092 32.3284 85.7937 32.6073 85.5818L32.7586 85.7808C33.0198 85.5823 33.2934 85.3867 33.579 85.1942L33.4393 84.9869C33.7163 84.8003 34.0041 84.6167 34.3024 84.4364L34.4317 84.6504C34.715 84.4792 35.008 84.3108 35.3105 84.1454L35.1905 83.9261C35.4849 83.7651 35.7879 83.6071 36.0993 83.4521L36.2107 83.6759C36.5089 83.5274 36.815 83.3817 37.1288 83.2387L37.0252 83.0112C37.3309 82.872 37.6436 82.7356 37.9631 82.6019L38.0596 82.8326C38.3672 82.7039 38.6814 82.5778 39.0018 82.4544L38.9119 82.2211C39.2259 82.1002 39.5458 81.9819 39.8714 81.8662L39.9551 82.1018C40.2708 81.9897 40.592 81.8801 40.9185 81.773L40.8406 81.5355C41.1617 81.4302 41.4877 81.3275 41.8186 81.2273L41.891 81.4666C42.2134 81.3691 42.5404 81.2739 42.8719 81.1813L42.8047 80.9406C43.1296 80.8498 43.4587 80.7615 43.7919 80.6757L43.8543 80.9178C44.1798 80.834 44.5092 80.7525 44.8425 80.6735L44.7848 80.4302C45.1143 80.3521 45.4475 80.2763 45.7843 80.203L45.8374 80.4473C46.1677 80.3754 46.5015 80.3058 46.8386 80.2387L46.7898 79.9935C47.1212 79.9274 47.4558 79.8637 47.7935 79.8023L47.8382 80.0483C48.17 79.988 48.5049 79.93 48.8426 79.8743L48.8019 79.6277C49.1371 79.5724 49.475 79.5194 49.8156 79.4688L49.8524 79.7161C50.1865 79.6665 50.5233 79.6191 50.8626 79.574L50.8297 79.3262C51.1656 79.2815 51.5039 79.2392 51.8445 79.1991L51.8738 79.4474C52.2101 79.4078 52.5487 79.3705 52.8896 79.3354L52.864 79.0867C53.2018 79.052 53.5418 79.0195 53.8838 78.9893L53.9058 79.2383C54.2425 79.2086 54.5812 79.1811 54.9218 79.1558L54.9033 78.9065C55.2426 78.8813 55.5838 78.8584 55.9267 78.8377L55.9418 79.0873C56.2797 79.0669 56.6194 79.0488 56.9607 79.0329L56.9491 78.7832C57.2884 78.7674 57.6293 78.7538 57.9717 78.7424L57.98 78.9923C58.3193 78.9811 58.6602 78.9721 59.0025 78.9653L58.9976 78.7153C59.3371 78.7086 59.6779 78.7041 60.0201 78.7019L60.0218 78.9519C60.1923 78.9508 60.3632 78.9502 60.5344 78.9502C60.7056 78.9502 60.8764 78.9508 61.047 78.9519L61.0486 78.7019C61.3908 78.7041 61.7317 78.7086 62.0712 78.7153L62.0662 78.9653C62.4085 78.9721 62.7494 78.9811 63.0888 78.9923L63.0971 78.7424C63.4395 78.7538 63.7804 78.7674 64.1197 78.7832L64.108 79.0329C64.4494 79.0488 64.789 79.0669 65.127 79.0873L65.142 78.8377C65.485 78.8584 65.8261 78.8813 66.1655 78.9065L66.147 79.1558C66.4876 79.1811 66.8262 79.2086 67.163 79.2383L67.185 78.9893C67.5269 79.0195 67.8669 79.052 68.2047 79.0867L68.1792 79.3354C68.52 79.3705 68.8586 79.4078 69.195 79.4474L69.2242 79.1991C69.5649 79.2392 69.9032 79.2815 70.2391 79.3262L70.2062 79.574C70.5454 79.6191 70.8822 79.6665 71.2164 79.7161L71.2531 79.4688C71.5938 79.5194 71.9317 79.5724 72.2668 79.6277L72.2262 79.8743C72.5639 79.93 72.8987 79.988 73.2306 80.0483L73.2753 79.8023C73.6129 79.8637 73.9476 79.9274 74.279 79.9935L74.2301 80.2387C74.5672 80.3058 74.901 80.3754 75.2313 80.4473L75.2845 80.203C75.6212 80.2763 75.9544 80.3521 76.2839 80.4302L76.2263 80.6735C76.5595 80.7525 76.889 80.834 77.2145 80.9178L77.2768 80.6757C77.6101 80.7615 77.9392 80.8498 78.2641 80.9406L78.1968 81.1813C78.5283 81.2739 78.8554 81.369 79.1777 81.4666L79.2501 81.2273C79.581 81.3275 79.9071 81.4302 80.2281 81.5355L80.1503 81.773C80.4767 81.8801 80.7979 81.9897 81.1136 82.1018L81.1973 81.8662C81.5229 81.9819 81.8428 82.1002 82.1568 82.2211L82.067 82.4544C82.3874 82.5778 82.7015 82.7039 83.0092 82.8326L83.1056 82.6019C83.4252 82.7356 83.7379 82.872 84.0435 83.0112L83.9399 83.2387C84.2537 83.3817 84.5598 83.5274 84.8581 83.6759L84.9695 83.4521C85.2809 83.6071 85.5839 83.7651 85.8782 83.926L85.7583 84.1454C86.0607 84.3108 86.3538 84.4792 86.637 84.6504L86.7663 84.4364C87.0647 84.6167 87.3525 84.8003 87.6294 84.9869L87.4897 85.1942C87.7753 85.3867 88.049 85.5823 88.3102 85.7808L88.4615 85.5817C88.7403 85.7937 89.0056 86.0091 89.2568 86.2279L89.0926 86.4165C89.353 86.6432 89.5975 86.8732 89.8257 87.1062L90.0043 86.9312C90.2501 87.1821 90.4778 87.4369 90.6868 87.6953L90.4925 87.8525C90.7071 88.1178 90.901 88.3863 91.0734 88.6576L91.2844 88.5235C91.4724 88.8193 91.6363 89.1191 91.7751 89.4226L91.5478 89.5266C91.6872 89.8314 91.8 90.1391 91.8856 90.4495L92.1266 90.383Z" stroke="#F4F5F6" stroke-width="0.5" stroke-dasharray="1 1"/>
<g id="Ellipse 3438" filter="url(#filter0_f_7838_10298)">
<circle cx="61.1336" cy="60.7" r="19.2" fill="white" fill-opacity="0.8"/>
</g>
<g id="Group 1707481415">
<path id="Vector 2207" d="M56.4167 91.5882L42.5903 29.0052L52.5746 22.5867C55.6278 24.0573 60.4945 26.5859 65.331 29.4698C70.2131 32.3809 75.0441 35.6421 77.954 38.535C78.4503 40.3787 79.4 43.1772 80.6635 45.6739C81.3027 46.937 82.0261 48.1305 82.8169 49.0855C83.5588 49.9815 84.3751 50.686 85.2543 51.0276C85.4717 57.7091 84.2877 67.6684 80.0413 76.0469C75.7894 84.4364 68.4784 91.2267 56.4167 91.5882Z" fill="white" fill-opacity="0.9" stroke="black" stroke-width="0.5"/>
<path id="Vector 2206" opacity="0.9" d="M56.3211 91.602C46.4528 83.158 40.8777 71.7036 37.9213 60.7947C35.0064 50.039 34.6426 39.8324 35.21 33.6074C36.9545 34.0679 38.519 33.4279 39.7564 32.4523C40.9846 31.4839 41.9186 30.1659 42.4409 29.1805C45.9125 30.0989 51.0328 32.7814 56.0718 35.8012C61.1311 38.8331 66.0785 42.1865 69.134 44.3814C68.6258 50.7862 73.2505 55.3051 75.7415 56.851C76.592 71.6695 73.4912 80.5282 69.3122 85.5899C65.1526 90.628 59.9016 91.9339 56.3211 91.602Z" fill="url(#paint0_radial_7838_10298)" stroke="black" stroke-width="0.5"/>
<path id="Vector 2209" opacity="0.9" d="M56.4097 87.8465C47.9954 80.7624 43.1248 70.6383 40.487 60.9779C37.865 51.3753 37.4523 42.2416 37.9526 37.0309C39.3543 37.2693 40.6779 36.6865 41.7501 35.8515C42.8193 35.0189 43.6525 33.9252 44.0846 33.1035C47.0472 33.8543 51.3107 36.1349 55.4905 38.6949C59.6772 41.2591 63.7675 44.0958 66.3583 45.9334C66.125 48.6344 67.014 51.2705 68.2169 53.384C69.4098 55.4798 70.92 57.0767 71.974 57.7199C72.7085 70.1654 70.1892 77.8343 66.8022 82.3205C63.4227 86.7967 59.1762 88.1104 56.4097 87.8465Z" fill="url(#paint1_radial_7838_10298)" stroke="black" stroke-width="0.2"/>
<path id="$" d="M56.0667 49.1285L56.1285 52.6699L54.4043 51.938L54.3425 48.3967L56.0667 49.1285ZM56.1988 68.6431L56.2552 71.8723L54.5311 71.1405L54.4747 67.9112L56.1988 68.6431ZM57.3458 65.2216C57.3379 64.7654 57.2537 64.3444 57.0934 63.9586C56.9405 63.5759 56.6924 63.1886 56.3491 62.7966C56.0132 62.4078 55.5596 61.9769 54.9882 61.504C54.0234 60.6973 53.1723 59.915 52.435 59.1572C51.705 58.3945 51.1315 57.591 50.7145 56.7468C50.2974 55.8945 50.0798 54.9481 50.0616 53.9077C50.0443 52.9153 50.2466 52.1473 50.6686 51.6035C51.0906 51.0597 51.6814 50.7544 52.4408 50.6875C53.2075 50.6158 54.1029 50.7972 55.127 51.232C55.908 51.5635 56.6176 51.9918 57.2557 52.5169C57.8937 53.0339 58.4454 53.6335 58.9107 54.3156C59.3759 54.9897 59.7362 55.7265 59.9915 56.526C60.2468 57.3255 60.3822 58.1734 60.3979 59.0697L57.2259 57.7233C57.2176 57.2431 57.1623 56.7986 57.06 56.3898C56.9578 55.981 56.8125 55.6135 56.6239 55.2872C56.4428 54.964 56.2259 54.6893 55.9733 54.4629C55.7205 54.2285 55.4431 54.0472 55.141 53.919C54.6916 53.7282 54.3248 53.6678 54.0408 53.7379C53.7568 53.808 53.5514 53.979 53.4245 54.2508C53.3048 54.5178 53.2486 54.8594 53.2559 55.2755C53.263 55.6837 53.3355 56.068 53.4735 56.4284C53.6188 56.7919 53.8631 57.1737 54.2065 57.5736C54.5498 57.9656 55.0184 58.4187 55.6125 58.9331C56.5773 59.7398 57.4248 60.5285 58.155 61.2992C58.8852 62.0699 59.4587 62.8773 59.8757 63.7216C60.2927 64.5659 60.5103 65.5083 60.5284 66.5487C60.5464 67.5811 60.3408 68.3676 59.9114 68.9082C59.4819 69.4408 58.8726 69.7303 58.0836 69.7767C57.2944 69.8151 56.3767 69.6122 55.3304 69.1681C54.6525 68.8804 53.9767 68.4982 53.3028 68.0215C52.6289 67.5368 52.0154 66.9587 51.4625 66.287C50.9096 65.6154 50.4646 64.8467 50.1277 63.9808C49.7907 63.1069 49.6128 62.1337 49.5941 61.0613L52.7771 62.4124C52.7873 62.9966 52.8658 63.5145 53.0126 63.9661C53.1593 64.4097 53.3489 64.796 53.5814 65.125C53.8211 65.4492 54.0891 65.7219 54.3855 65.943C54.6819 66.1641 54.9812 66.3388 55.2833 66.4671C55.7548 66.6672 56.14 66.7394 56.4389 66.6835C56.7451 66.6308 56.9728 66.4772 57.122 66.2228C57.2783 65.9635 57.353 65.6297 57.3458 65.2216Z" fill="black"/>
<path id="Vector 2208" d="M68.4102 44.2625L77.9265 38.4062M74.9984 56.707L84.5148 50.8508" stroke="black" stroke-width="0.5"/>
</g>
</g>
<defs>
<filter id="filter0_f_7838_10298" x="1.93359" y="1.5" width="118.398" height="118.4" filterUnits="userSpaceOnUse" color-interpolation-filters="sRGB">
<feFlood flood-opacity="0" result="BackgroundImageFix"/>
<feBlend mode="normal" in="SourceGraphic" in2="BackgroundImageFix" result="shape"/>
<feGaussianBlur stdDeviation="20" result="effect1_foregroundBlur_7838_10298"/>
</filter>
<radialGradient id="paint0_radial_7838_10298" cx="0" cy="0" r="1" gradientUnits="userSpaceOnUse" gradientTransform="translate(55.4335 52.3136) rotate(90) scale(42.4577 27.8944)">
<stop stop-color="#C8C8C8"/>
<stop offset="1" stop-color="white"/>
</radialGradient>
<radialGradient id="paint1_radial_7838_10298" cx="0" cy="0" r="1" gradientUnits="userSpaceOnUse" gradientTransform="translate(55.2301 53.6068) rotate(90) scale(35.5137 23.6758)">
<stop stop-color="#C8C8C8"/>
<stop offset="1" stop-color="white"/>
</radialGradient>
</defs>
</svg>
